<svg width="95" height="59" viewBox="0 0 95 59" fill="none" xmlns="http://www.w3.org/2000/svg">
<path d="M4.79424 52.3558C5.05967 52.3869 5.40465 52.0616 5.69888 51.9636C5.80662 51.9659 5.96912 51.8829 6.12671 51.8077C6.20965 51.7005 6.34169 51.5878 6.54576 51.4672C6.57096 51.4822 6.671 51.4395 6.76554 51.4009C6.86043 51.3539 6.94868 51.3032 7.03494 51.2509C7.0917 51.2173 7.14858 51.1841 7.2046 51.1503C7.3221 51.083 7.44427 51.0243 7.56672 50.9673C7.82108 50.8491 8.07724 50.7375 8.31359 50.6231C8.20491 50.6791 8.08966 50.7356 7.97002 50.7891C7.71492 50.903 7.50978 51.0393 7.4964 51.1431C7.50613 51.1509 7.52334 51.1536 7.54619 51.1524C7.48872 51.183 7.42974 51.2133 7.37886 51.245C7.35513 51.2598 7.35593 51.279 7.34558 51.2961C7.3831 51.2788 7.4367 51.2591 7.45496 51.2446C7.49532 51.2126 7.52395 51.1823 7.55496 51.1516C7.57092 51.1501 7.58868 51.1474 7.60999 51.1422C7.87582 51.0676 8.06321 50.8893 8.31693 50.7661C8.15542 50.8508 8.02347 50.9329 8.00529 50.987C7.97615 51.0736 8.17508 50.957 8.29703 50.9144C8.41369 50.8735 8.57496 50.7736 8.66298 50.7719C8.63253 50.786 8.60203 50.8002 8.57164 50.8144C8.53215 50.8324 8.49269 50.8505 8.45306 50.8688L8.45311 50.8687C8.39887 50.8933 8.34463 50.9178 8.29038 50.9423C8.44424 50.9799 8.53608 50.9444 8.87542 50.7159C9.07401 50.6189 9.21137 50.5878 9.35794 50.564C9.10001 50.7214 8.91825 50.876 8.63071 50.9779C8.61894 50.982 8.58216 51.0083 8.58147 51.0134C8.57949 51.0272 8.57595 51.0465 8.59897 51.0437C8.89654 51.0084 9.25365 50.8907 9.68809 50.66C9.75595 50.6239 9.77063 50.6065 9.73525 50.611C9.57845 50.6397 9.34363 50.8039 9.15175 50.8321C9.35931 50.7291 9.523 50.6481 9.68662 50.5668C9.93009 50.446 9.76759 50.441 9.87728 50.3592C9.90922 50.3485 9.94095 50.3378 9.97037 50.3284C10.0285 50.3081 10.0878 50.2858 10.1483 50.2615C10.3927 50.2353 10.6745 50.1689 11.0795 49.9837C11.2371 49.9116 11.3985 49.8634 11.5112 49.8551C11.6 49.8482 11.6854 49.8052 11.7683 49.7346C11.9237 49.6145 12.1097 49.5382 12.2995 49.4586C12.6022 49.3317 12.7497 49.2577 13.0677 49.0687C13.1132 49.0495 13.1585 49.0308 13.2033 49.0134C13.2712 48.9808 13.3376 48.946 13.4011 48.9089C13.4367 48.887 13.4698 48.8656 13.5014 48.8446C13.7805 48.7242 14.0526 48.5934 14.2981 48.4222C14.3143 48.4109 14.3416 48.3993 14.3638 48.3879C14.3958 48.3792 14.43 48.3671 14.4668 48.3516C14.4668 48.3517 14.4667 48.3517 14.4667 48.3517C14.5635 48.3552 14.6857 48.3381 14.8758 48.2274C15.1049 48.0941 15.3414 47.9848 15.5776 47.8729C15.7787 47.7776 15.9537 47.6821 16.0591 47.5727C16.139 47.4897 16.2689 47.4199 16.4201 47.3494C16.9876 47.0846 17.5549 46.818 18.1224 46.5529C18.2066 46.5136 18.2909 46.4752 18.3694 46.4465C18.3679 46.455 18.3672 46.4633 18.3669 46.4714C18.4141 46.4652 18.4613 46.459 18.5086 46.4528C18.5985 46.3944 18.6884 46.336 18.7785 46.2776C18.7783 46.2723 18.7774 46.2675 18.7761 46.2629C18.8449 46.2172 18.9131 46.1718 18.9831 46.1252C18.8686 46.1419 18.677 46.2303 18.6204 46.198C18.6188 46.197 18.6183 46.1959 18.6169 46.1949C18.6988 46.1612 18.7809 46.1267 18.8634 46.0914C19.3175 45.9803 19.8677 45.7445 20.3983 45.534C20.3973 45.5467 20.3963 45.5593 20.3954 45.5719C20.4846 45.5309 20.5738 45.4898 20.663 45.4488C20.753 45.4469 20.9673 45.3095 21.0258 45.342C21.0335 45.3665 21.0358 45.3943 21.116 45.3767L21.1102 45.3769C21.1541 45.374 21.2001 45.3544 21.2486 45.3153C21.291 45.2932 21.3338 45.2731 21.3767 45.255C21.3963 45.2334 21.4569 45.2001 21.5286 45.1637C21.5632 45.157 21.5975 45.1509 21.6306 45.1461C21.646 45.1439 21.6554 45.1464 21.6676 45.1468C21.2875 45.441 20.7834 45.7686 20.2828 46.0416C20.056 46.1652 19.8018 46.2833 19.7184 46.4141C19.7184 46.4141 19.7215 46.4139 19.7214 46.4139C19.7491 46.4647 19.4945 46.6191 19.5709 46.6562C19.9762 46.4746 20.3729 46.2875 20.778 46.0795C21.2462 45.839 21.729 45.6184 22.206 45.3941C22.2872 45.356 22.3711 45.3431 22.4537 45.3186C22.4537 45.3187 22.4508 45.3199 22.4508 45.3199C22.495 45.3167 22.5382 45.2974 22.5803 45.2595C22.5803 45.2595 22.5791 45.2602 22.5791 45.2602C22.6765 45.1724 22.823 45.1044 22.965 45.0384C23.3212 44.8726 23.6818 44.7169 24.032 44.5407C24.2303 44.441 24.3979 44.3636 24.5777 44.3062C25.046 44.1566 25.5348 43.9551 26.0423 43.6986C26.1383 43.653 26.2344 43.6074 26.3304 43.5618C26.7114 43.3721 27.0756 43.1551 27.4674 42.9829C27.5892 42.8873 27.7431 42.8098 27.9053 42.7372C27.9536 42.7142 28.0019 42.6912 28.0501 42.6683L28.1176 42.6331L28.1858 42.6039L28.1866 42.6043C28.2382 42.5657 28.2907 42.5404 28.3443 42.5307C28.3443 42.5307 28.3449 42.5296 28.3449 42.5296C28.5291 42.4426 28.7133 42.3555 28.8976 42.2684C28.9885 42.1973 29.1045 42.1419 29.2233 42.0858C29.6936 41.8642 30.1637 41.6418 30.6339 41.4197C30.6821 41.3977 30.7303 41.3756 30.7785 41.3536C30.8737 41.3087 30.9689 41.2638 31.0641 41.2189C31.1626 41.1349 31.2964 41.0646 31.4425 40.9964C31.9365 40.7658 32.4304 40.5343 32.9244 40.3032C33.3613 40.0517 34.0189 39.7438 34.5276 39.5527C34.6099 39.5127 34.6923 39.4726 34.7747 39.4325C34.864 39.3615 34.9791 39.305 35.0988 39.2493C35.3341 39.1399 35.5693 39.0295 35.8046 38.9194C35.8528 38.8966 35.9011 38.8738 35.9494 38.851C36.041 38.8073 36.1326 38.7635 36.2244 38.7197C36.2244 38.7197 36.2273 38.7199 36.2273 38.7199C36.3325 38.6432 36.4406 38.5988 36.55 38.5687C36.5788 38.55 36.6098 38.5338 36.643 38.5201C36.6509 38.5046 36.6589 38.4891 36.6672 38.4735C36.6959 38.4491 36.7265 38.4259 36.7579 38.4031C36.7761 38.4087 36.8049 38.4115 36.844 38.4119C37.5067 38.114 38.1727 37.7685 38.8356 37.5046C38.902 37.5007 38.996 37.4551 39.0883 37.4121C39.1547 37.3801 39.2078 37.3464 39.2474 37.3109L39.2447 37.314C39.4152 37.1887 39.6653 37.1256 39.8301 36.9959L39.8872 36.9643L39.9454 36.9413C40.2668 36.7348 40.6549 36.6308 40.9713 36.4164L40.9641 36.421C41.1438 36.3021 41.3146 36.1798 41.5475 36.0818C41.6078 36.0534 41.666 36.0228 41.7226 35.9899C41.8331 35.9253 41.9537 35.8705 42.0645 35.8066C42.1193 35.7748 42.1712 35.7426 42.2195 35.7097C42.2864 35.661 42.3423 35.6144 42.388 35.5696L42.3884 35.571C42.5322 35.4823 42.6386 35.3956 42.7549 35.3084C42.9987 35.1513 43.3414 35.0294 43.5307 34.8527L43.5314 34.854C43.8969 34.6348 44.2746 34.502 44.6464 34.3256C44.6517 34.3233 44.6571 34.3208 44.6624 34.3184C44.6761 34.3159 44.6956 34.3096 44.72 34.2997C44.8044 34.2653 44.8924 34.2222 44.9789 34.1828C44.9864 34.1683 44.9906 34.1553 44.9928 34.143C44.9954 34.1413 44.9981 34.1396 45.0007 34.1379C45.0051 34.1338 45.0091 34.1297 45.0134 34.1256C45.1365 34.0646 45.2598 34.0036 45.383 33.9425C45.3202 33.9337 45.2255 33.9714 45.1247 34.0178C45.2195 33.9475 45.3311 33.8855 45.4467 33.8256C45.5254 33.7882 45.6041 33.7508 45.6828 33.7133C45.6847 33.7096 45.6865 33.7059 45.6884 33.7021C45.7426 33.6739 45.7958 33.6452 45.8467 33.6152C46.2831 33.3936 46.7144 33.1616 47.1552 32.9453C47.5965 32.6672 48.1084 32.5099 48.5529 32.2363L48.5487 32.2393C48.9519 32.0071 49.3726 31.8443 49.7843 31.6423C49.8519 31.6115 49.9171 31.5784 49.9818 31.5419C50.0628 31.4539 50.1245 31.4858 50.1968 31.4465C50.2626 31.413 50.3265 31.3776 50.3879 31.3409C50.7827 31.1183 51.182 30.9313 51.5851 30.777C51.7846 30.7366 52.0161 30.5918 52.2305 30.5028C52.3115 30.4672 52.3773 30.4276 52.4278 30.3838L52.4252 30.3869C52.665 30.2267 52.9622 30.1419 53.2035 29.9833C53.264 29.9468 53.3251 29.9107 53.3866 29.8747C53.5184 29.8112 53.6497 29.7363 53.7703 29.6895C54.3315 29.4716 54.893 29.183 55.4528 28.9349L55.4567 28.9323C55.4857 28.912 55.4991 28.8977 55.4986 28.8886C55.6327 28.8275 55.7714 28.7527 55.8945 28.7243C55.8945 28.7243 55.9028 28.7169 55.9027 28.717C56.0802 28.6232 56.2578 28.5292 56.4354 28.4353C56.4391 28.4324 56.4431 28.4295 56.4469 28.4266C56.4481 28.4265 56.4496 28.4263 56.4508 28.4263C56.4487 28.4272 56.4466 28.4282 56.4446 28.4292C56.4547 28.428 56.4651 28.4263 56.4755 28.4244C56.4994 28.4213 56.5272 28.4151 56.5599 28.405C56.5647 28.4031 56.5694 28.401 56.5741 28.3991C56.7369 28.3472 56.9245 28.2449 57.0971 28.1717C57.2755 28.096 57.469 27.986 57.6203 27.9655C57.7529 27.9044 57.8856 27.8433 58.0182 27.7821C58.0201 27.781 58.0209 27.7802 58.0227 27.7792C58.0259 27.7781 58.0291 27.777 58.0323 27.776C58.0829 27.753 58.1333 27.7291 58.1836 27.7048C58.1872 27.7037 58.1899 27.7031 58.1939 27.7018C58.1939 27.7018 58.1944 27.7005 58.1944 27.7006C58.8011 27.4181 59.4078 27.1356 60.0146 26.8531C60.3968 26.6812 60.7789 26.5121 61.1608 26.3442C61.6049 26.1229 62.0297 25.9984 62.4758 25.7711C62.5483 25.7425 62.6215 25.7109 62.6956 25.6762C63.0553 25.5091 63.4146 25.3414 63.7749 25.1737C63.8436 25.1418 63.9115 25.1101 63.9803 25.0778C64.1377 24.9866 64.2956 24.9281 64.4532 24.8584C64.6366 24.7719 64.82 24.6878 65.0033 24.6011C65.1753 24.5053 65.3474 24.4103 65.5257 24.3521C65.5846 24.3289 65.6442 24.3033 65.7043 24.2751C65.7949 24.2324 65.887 24.1902 65.9454 24.1347L65.9414 24.1389C66.6276 23.7731 67.3267 23.4861 68.0194 23.1507C68.0914 23.1171 68.1619 23.0844 68.234 23.0511C68.4216 22.9592 68.6015 22.8441 68.7946 22.7803C68.8536 22.7586 68.9134 22.7341 68.9748 22.7056C69.0647 22.664 69.1544 22.6224 69.2439 22.5798C69.3056 22.5495 69.356 22.5176 69.395 22.484L69.3922 22.4865C69.8552 22.2096 70.3714 22.0517 70.8319 21.7693C71.0479 21.6172 71.3385 21.544 71.5521 21.3894L71.6024 21.3595L71.6565 21.3368C71.8896 21.1822 72.1861 21.1022 72.4133 20.9408L72.465 20.9111L72.5194 20.8886C72.5647 20.8644 72.5857 20.8479 72.5876 20.8377C72.5885 20.8373 72.5895 20.8368 72.5905 20.8364C72.801 20.7382 73.0119 20.6405 73.2226 20.5415C73.2969 20.5071 73.359 20.4695 73.4089 20.4287L73.4058 20.4314C73.5779 20.3129 73.7771 20.2446 73.9623 20.1504C74.0291 20.1183 74.0829 20.0843 74.1235 20.0484L74.1201 20.0516C74.2431 19.9573 74.4393 19.9006 74.5573 19.8038L74.5571 19.8041C74.77 19.6593 75.0135 19.579 75.2398 19.4627C75.31 19.4295 75.3677 19.3938 75.4127 19.3557L75.4093 19.3587C75.532 19.2634 75.7305 19.2074 75.8487 19.1098L75.8993 19.0796L75.9538 19.0569C76.0902 18.9614 76.2878 18.9001 76.4138 18.7988C76.6262 18.6467 76.9212 18.5748 77.1293 18.4185C77.3115 18.2949 77.5197 18.2231 77.7145 18.125C77.8132 18.0784 77.9157 18.0339 77.9878 17.9724C78.2539 17.7935 78.5906 17.7068 78.8532 17.5236L78.8513 17.525C79.1588 17.3344 79.4906 17.2172 79.808 17.0568C79.8856 17.0223 79.9487 16.9841 79.9969 16.9422L79.994 16.9452C80.2909 16.7628 80.6094 16.6483 80.9158 16.4949C80.9846 16.4631 81.0529 16.4298 81.1208 16.3949C81.2825 16.269 81.4895 16.1812 81.6895 16.0876C81.7595 16.0543 81.8165 16.019 81.8583 15.9813L81.8549 15.9848C81.978 15.8908 82.1775 15.8339 82.2918 15.7357L82.2881 15.7382C82.3739 15.6738 82.4959 15.6225 82.59 15.5612C82.6702 15.5 82.7836 15.4395 82.8604 15.3781L82.8577 15.3802C82.9451 15.3157 83.053 15.2678 83.1579 15.2175C83.2113 15.1891 83.2547 15.1603 83.2864 15.1312L83.283 15.1344C83.4031 15.0405 83.6079 14.9834 83.7169 14.8846C83.8118 14.8179 83.9408 14.7636 84.0368 14.6974C84.1396 14.6111 84.3295 14.5481 84.4291 14.461C84.5107 14.4011 84.6379 14.3478 84.7076 14.2862C84.7677 14.2465 84.8136 14.2086 84.8569 14.171C84.9086 14.133 84.9566 14.0956 84.994 14.06C85.0512 14.02 85.1011 13.9813 85.1321 13.9458C85.2267 13.8808 85.1995 13.8499 85.2792 13.7891L85.2782 13.7901C85.3286 13.7509 85.3834 13.711 85.4117 13.6762L85.3987 13.6844C85.4463 13.6531 85.4755 13.6261 85.4863 13.6034C85.4888 13.568 85.4811 13.5365 85.5514 13.4746L85.5476 13.4786C85.6832 13.3733 85.5833 13.3555 85.677 13.2657C85.6623 13.2612 85.6659 13.2489 85.6877 13.2288C85.8585 13.0794 85.6508 13.082 85.8186 12.9338L85.8168 12.9356C85.9027 12.8701 85.8795 12.8388 85.9505 12.778C86.0335 12.7154 86.1707 12.6598 86.2375 12.5952L86.23 12.6016C86.2914 12.562 86.335 12.5243 86.384 12.486L86.3855 12.4849C86.4314 12.448 86.4791 12.4109 86.5221 12.3745C86.5732 12.3354 86.6266 12.2959 86.6577 12.2605C86.7498 12.1958 86.7238 12.1649 86.8019 12.1042L86.8008 12.1053C86.8519 12.0671 86.8995 12.0294 86.9424 11.9923C86.994 11.954 87.0424 11.9162 87.082 11.8798C87.1693 11.8164 87.1384 11.787 87.2282 11.7229L87.2306 11.7204C87.2716 11.6841 87.3258 11.6451 87.3556 11.6112C87.5236 11.482 87.3467 11.4836 87.4923 11.3628L87.4876 11.3661C87.5648 11.3091 87.6264 11.2557 87.6603 11.2086C87.7553 11.0675 87.9069 10.9119 88.1595 10.7195C88.3876 10.8101 88.8073 10.5148 89.1764 10.3259C89.2403 10.2963 89.3022 10.2647 89.3631 10.2303C89.4764 10.1614 89.5643 10.095 89.6336 10.03C89.6621 10.0003 89.6833 9.97331 89.6968 9.9487C89.7003 9.91957 89.713 9.8873 89.7685 9.83962L89.7661 9.84211C89.8838 9.7545 89.7961 9.73441 89.9238 9.64352C89.9988 9.57725 90.1202 9.51387 90.2188 9.44913C90.3566 9.3483 90.485 9.24868 90.5994 9.15104C90.6605 9.101 90.7048 9.05523 90.7435 9.0109L90.7399 9.01611C90.9204 8.88196 90.7297 8.88765 90.8875 8.76205L90.8863 8.76325C91.0144 8.66534 90.899 8.65536 91.0196 8.56018C91.1234 8.45045 91.1422 8.38095 90.9935 8.39066L91.0053 8.38879C90.9721 8.38283 90.9168 8.39363 90.8613 8.4046L90.8638 8.40466C90.7818 8.41664 90.8057 8.36105 90.7052 8.38479L90.7101 8.38664C90.6059 8.35802 90.3598 8.66994 90.2906 8.55706C89.7447 8.70008 89.7222 8.97607 89.298 9.15307C89.344 9.05582 89.5368 8.90266 89.4927 8.83301C89.4419 8.75266 89.3035 8.83254 89.1153 8.96531C89.093 8.97844 89.0706 8.99158 89.0484 9.00467C88.8075 9.10796 88.5757 9.22944 88.3449 9.35258C88.244 9.38154 88.1522 9.39123 88.0736 9.37262C88.0492 9.36682 87.8981 9.45766 87.8211 9.51307C87.7213 9.59347 87.6625 9.66095 87.6461 9.71592C87.6438 9.72741 87.6542 9.72744 87.6653 9.72456C87.6606 9.72679 87.6571 9.72835 87.6506 9.73157C87.6007 9.7565 87.5746 9.74883 87.5447 9.7514C87.4934 9.76182 87.4383 9.77864 87.3813 9.79878C87.4771 9.72721 87.5697 9.65671 87.5876 9.60835C87.715 9.57264 87.8374 9.50958 87.9548 9.42004C88.0032 9.38273 88.0515 9.34543 88.0998 9.30812C88.3641 9.18582 88.5039 9.05823 88.6589 8.93296C88.7746 8.83943 88.7375 8.81044 88.5695 8.87155C88.4619 8.91069 88.3429 8.96742 88.2291 9.01627L88.229 9.01629L88.2292 9.01609C88.2331 8.985 88.237 8.95388 88.2407 8.92279C88.2407 8.92275 88.2408 8.92273 88.2409 8.92267C88.8122 8.64812 88.8122 8.64812 89.0937 8.43112C88.9047 8.51917 88.7425 8.59617 88.5805 8.66945C88.5013 8.70529 88.4587 8.70885 88.5187 8.6582C88.5449 8.63607 88.6033 8.60792 88.6471 8.5825C88.6471 8.5825 88.6471 8.5825 88.6471 8.58252C88.7673 8.5314 88.8707 8.47644 88.9282 8.41085L88.9282 8.41088C88.9282 8.41088 88.9282 8.41088 88.9282 8.41085C88.9282 8.41085 88.9297 8.40942 88.9297 8.40941L88.9297 8.4094C89.0775 8.31698 89.2258 8.22531 89.3994 8.14903C89.5973 8.06206 89.7643 7.95373 89.939 7.85102C89.9796 7.82813 90.0212 7.80707 90.0639 7.78782C90.1847 7.69201 90.3868 7.63475 90.5032 7.53688L90.5004 7.53873C90.5879 7.46501 90.7825 7.39906 90.8302 7.32253C90.5647 7.29137 90.2197 7.6167 89.9255 7.71473C89.8178 7.7124 89.6553 7.79535 89.4977 7.87063C89.4148 7.97781 89.2828 8.09045 89.0787 8.21103C89.0535 8.19607 88.9535 8.23876 88.8589 8.27737C88.764 8.32435 88.6757 8.37514 88.5895 8.42741C88.5327 8.46098 88.4758 8.49417 88.4198 8.52798C88.3023 8.59534 88.1802 8.65398 88.0577 8.71096C87.8033 8.82916 87.5472 8.94082 87.3108 9.05519C87.4195 8.99922 87.5348 8.94265 87.6544 8.88924C87.9095 8.77535 88.1146 8.63904 88.128 8.53521C88.1183 8.52737 88.1011 8.52468 88.0782 8.5259C88.1357 8.4953 88.1947 8.46501 88.2456 8.43327C88.2693 8.41847 88.2685 8.39934 88.2788 8.3822C88.2413 8.39952 88.1877 8.41921 88.1695 8.4337C88.1291 8.46573 88.1005 8.49604 88.0695 8.52668C88.0535 8.52818 88.0357 8.5309 88.0144 8.53607C87.7486 8.61067 87.5612 8.78898 87.3075 8.91219C87.469 8.82755 87.601 8.74538 87.6191 8.69137C87.6482 8.60471 87.4493 8.72131 87.3273 8.76399C87.2107 8.80479 87.0494 8.90475 86.9614 8.90647C86.9919 8.8923 87.0223 8.87812 87.0527 8.86397C87.0922 8.84592 87.1317 8.82782 87.1713 8.80961L87.1712 8.80961C87.2255 8.7851 87.2797 8.76059 87.3339 8.73608C87.1801 8.69843 87.0882 8.73397 86.7489 8.96246C86.5503 9.05943 86.413 9.09056 86.2664 9.11434C86.5243 8.95691 86.7061 8.8023 86.9936 8.70047C87.0054 8.6963 87.0422 8.67009 87.0429 8.66498C87.0448 8.65116 87.0484 8.63188 87.0253 8.63463C86.7278 8.66996 86.3707 8.7876 85.9363 9.01837C85.8684 9.05443 85.8537 9.07178 85.8891 9.0673C86.0459 9.03858 86.2807 8.8744 86.4726 8.84627C86.265 8.9492 86.1013 9.03029 85.9378 9.11149C85.6943 9.23236 85.8568 9.23732 85.7471 9.3191C85.7151 9.3298 85.6834 9.34052 85.654 9.34995C85.5959 9.37025 85.5366 9.39251 85.4761 9.41682C85.2317 9.44308 84.9498 9.50943 84.5448 9.69465C84.3873 9.7667 84.2259 9.81491 84.1131 9.82327C84.0243 9.83009 83.9389 9.87312 83.856 9.94379C83.7007 10.0638 83.5146 10.1402 83.3248 10.2198C83.0221 10.3467 82.8746 10.4207 82.5566 10.6096C82.511 10.6289 82.4657 10.6476 82.421 10.6649C82.3531 10.6976 82.2867 10.7324 82.2232 10.7694C82.1876 10.7914 82.1545 10.8127 82.1229 10.8337C81.8438 10.9541 81.5718 11.085 81.3263 11.2561C81.31 11.2674 81.2827 11.279 81.2605 11.2904C81.2286 11.2991 81.1943 11.3112 81.1575 11.3267C81.1575 11.3266 81.1576 11.3266 81.1576 11.3266C81.0608 11.3231 80.9386 11.3403 80.7485 11.4509C80.5195 11.5842 80.2829 11.6935 80.0467 11.8054C79.8456 11.9007 79.6706 11.9962 79.5652 12.1056C79.4853 12.1886 79.3554 12.2584 79.2043 12.3289C78.6367 12.5937 78.0694 12.8603 77.5019 13.1254C77.4177 13.1648 77.3334 13.2031 77.2549 13.2318C77.2564 13.2233 77.2571 13.2151 77.2574 13.207C77.2102 13.2131 77.163 13.2193 77.1157 13.2256C77.0258 13.2839 76.9358 13.3423 76.8458 13.4007C76.846 13.406 76.8469 13.4109 76.8482 13.4154C76.7795 13.4611 76.7112 13.5066 76.6412 13.5531C76.7557 13.5364 76.9473 13.448 77.0039 13.4804C77.0055 13.4813 77.0061 13.4824 77.0074 13.4834C76.9255 13.5172 76.8434 13.5517 76.761 13.587C76.3068 13.698 75.7566 13.9339 75.226 14.1443C75.227 14.1317 75.228 14.119 75.2289 14.1064C75.1397 14.1475 75.0505 14.1885 74.9613 14.2295C74.8713 14.2314 74.657 14.3688 74.5985 14.3363C74.5908 14.3118 74.5885 14.284 74.5083 14.3016L74.514 14.3014C74.4701 14.3043 74.4241 14.324 74.3757 14.3631C74.3332 14.3851 74.2905 14.4053 74.2476 14.4234C74.2279 14.445 74.1674 14.4782 74.0957 14.5147C74.061 14.5214 74.0268 14.5275 73.9936 14.5323C73.9782 14.5345 73.9688 14.5319 73.9566 14.5316C74.3367 14.2373 74.8408 13.9097 75.3414 13.6368C75.5683 13.5131 75.8224 13.395 75.9058 13.2643C75.9058 13.2643 75.9027 13.2645 75.9028 13.2645C75.8751 13.2137 76.1297 13.0593 76.0533 13.0221C75.6481 13.2037 75.2513 13.3909 74.8462 13.5989C74.3781 13.8394 73.8952 14.06 73.4182 14.2842C73.337 14.3224 73.2532 14.3352 73.1705 14.3597C73.1705 14.3597 73.1735 14.3585 73.1735 14.3585C73.1293 14.3617 73.086 14.381 73.044 14.4188C73.044 14.4188 73.0452 14.4182 73.0452 14.4182C72.9478 14.5059 72.8012 14.5739 72.6593 14.64C72.3031 14.8058 71.9425 14.9614 71.5922 15.1377C71.394 15.2374 71.2263 15.3148 71.0466 15.3722C70.5783 15.5217 70.0895 15.7233 69.582 15.9798C69.486 16.0253 69.3899 16.0709 69.2939 16.1165C68.913 16.3062 68.5487 16.5233 68.1569 16.6955C68.0351 16.791 67.8812 16.8685 67.719 16.9412C67.6707 16.9641 67.6224 16.9871 67.5742 17.0101L67.5068 17.0452L67.4385 17.0744L67.4377 17.0741C67.3861 17.1127 67.3336 17.1379 67.28 17.1476C67.28 17.1476 67.2794 17.1488 67.2795 17.1487C67.0952 17.2358 66.911 17.3229 66.7267 17.41C66.6358 17.481 66.5198 17.5365 66.401 17.5925C65.9307 17.8141 65.4606 18.0365 64.9904 18.2586C64.9422 18.2807 64.894 18.3027 64.8459 18.3247C64.7507 18.3696 64.6555 18.4146 64.5603 18.4595C64.4618 18.5434 64.328 18.6137 64.1818 18.6819C63.6879 18.9125 63.194 19.144 62.7 19.3751C62.263 19.6266 61.6055 19.9345 61.0968 20.1256C61.0145 20.1656 60.9321 20.2058 60.8496 20.2459C60.7604 20.3168 60.6453 20.3733 60.5257 20.4289C60.2904 20.5384 60.0551 20.6488 59.8198 20.7589C59.7715 20.7817 59.7233 20.8045 59.6751 20.8273C59.5834 20.871 59.4918 20.9148 59.4 20.9586C59.4 20.9586 59.3971 20.9584 59.3971 20.9584C59.2919 21.0351 59.1838 21.0795 59.0744 21.1096C59.0456 21.1283 59.0146 21.1445 58.9815 21.1582C58.9735 21.1737 58.9655 21.1892 58.9572 21.2048C58.9286 21.2292 58.8979 21.2524 58.8665 21.2752C58.8483 21.2696 58.8195 21.2668 58.7805 21.2664C58.1177 21.5643 57.4517 21.9098 56.7888 22.1737C56.7224 22.1776 56.6284 22.2232 56.5361 22.2662C56.4696 22.2982 56.4166 22.3319 56.377 22.3674L56.3797 22.3643C56.2092 22.4896 55.9591 22.5527 55.7942 22.6825L55.7372 22.7141L55.679 22.737C55.3575 22.9435 54.9695 23.0476 54.6531 23.2619L54.6602 23.2574C54.4805 23.3762 54.3097 23.4985 54.0768 23.5966C54.0165 23.625 53.9583 23.6556 53.9017 23.6884C53.7912 23.7531 53.6706 23.8079 53.5598 23.8717C53.505 23.9036 53.4531 23.9358 53.4048 23.9687C53.3379 24.0174 53.282 24.0639 53.2363 24.1087L53.2359 24.1074C53.0921 24.196 52.9858 24.2828 52.8694 24.3699C52.6257 24.527 52.283 24.6489 52.0936 24.8256L52.093 24.8244C51.7275 25.0435 51.3497 25.1763 50.978 25.3527C50.9726 25.3551 50.9673 25.3576 50.962 25.3599C50.9483 25.3625 50.9288 25.3687 50.9043 25.3787C50.8199 25.413 50.7319 25.4562 50.6455 25.4955C50.6379 25.51 50.6337 25.5231 50.6315 25.5353C50.6289 25.5371 50.6263 25.5387 50.6236 25.5405C50.6193 25.5446 50.6152 25.5486 50.6109 25.5527C50.4878 25.6137 50.3645 25.6748 50.2413 25.7358C50.3041 25.7447 50.3988 25.707 50.4996 25.6606C50.4048 25.7309 50.2933 25.7928 50.1776 25.8527C50.0989 25.8901 50.0202 25.9276 49.9415 25.965C49.9397 25.9687 49.9378 25.9725 49.936 25.9762C49.8818 26.0045 49.8285 26.0332 49.7777 26.0631C49.3412 26.2847 48.9099 26.5168 48.4691 26.733C48.0278 27.0111 47.516 27.1685 47.0714 27.442L47.0756 27.4391C46.6724 27.6712 46.2517 27.8341 45.84 28.036C45.7724 28.0669 45.7072 28.0999 45.6426 28.1364C45.5616 28.2244 45.4998 28.1925 45.4276 28.2318C45.3618 28.2653 45.2979 28.3007 45.2365 28.3374C44.8417 28.56 44.4424 28.7471 44.0393 28.9013C43.8398 28.9417 43.6083 29.0865 43.3939 29.1755C43.3129 29.2111 43.2471 29.2507 43.1966 29.2945L43.1992 29.2914C42.9593 29.4516 42.6621 29.5364 42.4208 29.695C42.3604 29.7315 42.2993 29.7676 42.2378 29.8036C42.1059 29.8671 41.9746 29.942 41.854 29.9888C41.2928 30.2067 40.7313 30.4954 40.1715 30.7434L40.1676 30.746C40.1386 30.7663 40.1252 30.7806 40.1258 30.7897C39.9916 30.8508 39.8529 30.9256 39.7299 30.954C39.7299 30.954 39.7216 30.9614 39.7217 30.9613C39.5442 31.0551 39.3666 31.1491 39.189 31.243C39.1852 31.2459 39.1812 31.2488 39.1774 31.2518C39.1762 31.2518 39.1748 31.252 39.1736 31.2521C39.1756 31.2511 39.1777 31.2501 39.1798 31.2491C39.1697 31.2503 39.1593 31.252 39.1488 31.2539C39.125 31.257 39.0971 31.2633 39.0644 31.2733C39.0597 31.2752 39.0549 31.2773 39.0502 31.2792C38.8875 31.3311 38.6999 31.4334 38.5273 31.5066C38.3489 31.5823 38.1554 31.6923 38.0041 31.7128C37.8714 31.7739 37.7388 31.835 37.6061 31.8962C37.6043 31.8973 37.6035 31.8981 37.6017 31.8991C37.5985 31.9002 37.5952 31.9013 37.592 31.9024C37.5415 31.9253 37.4911 31.9492 37.4408 31.9735C37.4372 31.9746 37.4345 31.9752 37.4305 31.9765C37.4305 31.9765 37.43 31.9778 37.43 31.9777C36.8233 32.2602 36.2165 32.5427 35.6098 32.8252C35.2276 32.9971 34.8455 33.1662 34.4635 33.3342C34.0195 33.5554 33.5947 33.6799 33.1486 33.9073C33.076 33.9359 33.0029 33.9674 32.9288 34.0022C32.5691 34.1692 32.2097 34.3369 31.8495 34.5046C31.7808 34.5366 31.7129 34.5682 31.6441 34.6005C31.4867 34.6917 31.3288 34.7503 31.1712 34.82C30.9878 34.9065 30.8044 34.9905 30.6211 35.0772C30.449 35.1731 30.277 35.2681 30.0987 35.3262C30.0398 35.3494 29.9802 35.375 29.9201 35.4032C29.8295 35.4459 29.7373 35.4881 29.679 35.5436L29.683 35.5395C28.9968 35.9052 28.2977 36.1922 27.6049 36.5276C27.533 36.5612 27.4625 36.5939 27.3903 36.6273C27.2028 36.7191 27.0229 36.8343 26.8297 36.898C26.7707 36.9197 26.711 36.9443 26.6496 36.9727C26.5596 37.0143 26.47 37.0559 26.3805 37.0985C26.3188 37.1288 26.2684 37.1608 26.2294 37.1943L26.2321 37.1918C25.7692 37.4687 25.253 37.6267 24.7925 37.909C24.5764 38.0611 24.2859 38.1343 24.0723 38.289L24.022 38.3189L23.9679 38.3416C23.7348 38.4962 23.4383 38.5761 23.211 38.7376L23.1594 38.7673L23.105 38.7897C23.0596 38.814 23.0386 38.8304 23.0368 38.8406C23.0359 38.8411 23.0349 38.8415 23.0339 38.842C22.8234 38.9402 22.6124 39.0378 22.4018 39.1368C22.3275 39.1713 22.2654 39.2089 22.2155 39.2497L22.2186 39.247C22.0465 39.3654 21.8473 39.4338 21.6621 39.528C21.5953 39.56 21.5415 39.594 21.5009 39.6299L21.5042 39.6267C21.3813 39.721 21.185 39.7777 21.067 39.8745L21.0673 39.8743C20.8543 40.0191 20.6109 40.0994 20.3846 40.2157C20.3144 40.2489 20.2567 40.2845 20.2117 40.3227L20.2151 40.3197C20.0924 40.415 19.8938 40.471 19.7756 40.5686L19.725 40.5988L19.6706 40.6214C19.5342 40.7169 19.3366 40.7783 19.2106 40.8795C18.9982 41.0316 18.7032 41.1036 18.4951 41.2599C18.3129 41.3834 18.1047 41.4552 17.9099 41.5534C17.8112 41.5999 17.7087 41.6444 17.6365 41.706C17.3705 41.8848 17.0338 41.9715 16.7712 42.1547L16.7731 42.1533C16.4656 42.344 16.1338 42.4612 15.8164 42.6215C15.7388 42.6561 15.6757 42.6943 15.6275 42.7362L15.6304 42.7332C15.3334 42.9155 15.015 43.0301 14.7086 43.1834C14.6397 43.2153 14.5715 43.2485 14.5036 43.2834C14.3419 43.4093 14.1349 43.4971 13.9349 43.5907C13.8649 43.624 13.8079 43.6594 13.7662 43.697L13.7695 43.6936C13.6465 43.7875 13.4469 43.8444 13.3327 43.9426L13.3363 43.9402C13.2505 44.0046 13.1286 44.0558 13.0345 44.1171C12.9542 44.1783 12.8408 44.2389 12.7641 44.3002L12.7668 44.2981C12.6793 44.3626 12.5714 44.4106 12.4666 44.4608C12.4132 44.4892 12.3698 44.518 12.3381 44.5471L12.3415 44.5438C12.2214 44.6378 12.0167 44.6949 11.9076 44.7937C11.8127 44.8604 11.6838 44.9147 11.5877 44.9809C11.4849 45.0672 11.295 45.1302 11.1955 45.2173C11.1138 45.2771 10.9866 45.3305 10.9169 45.392C10.8568 45.4318 10.8109 45.4697 10.7677 45.5073C10.7159 45.5453 10.6679 45.5826 10.6305 45.6183C10.5733 45.6583 10.5234 45.697 10.4924 45.7325C10.3978 45.7974 10.425 45.8284 10.3453 45.8892L10.3463 45.8882C10.2959 45.9274 10.2411 45.9673 10.2128 46.0021L10.2259 45.9939C10.1783 46.0252 10.1491 46.0522 10.1383 46.0749C10.1357 46.1104 10.1434 46.1418 10.0732 46.2037L10.0769 46.1997C9.94134 46.305 10.0412 46.3228 9.94753 46.4126C9.96226 46.4171 9.95863 46.4294 9.9368 46.4495C9.76599 46.5989 9.9737 46.5963 9.806 46.7445L9.80782 46.7427C9.72192 46.8082 9.74511 46.8395 9.67412 46.9003C9.59113 46.9629 9.45387 47.0185 9.38711 47.0831L9.39455 47.0767C9.33314 47.1162 9.28955 47.154 9.24054 47.1923L9.23909 47.1934C9.19316 47.2303 9.14547 47.2674 9.10243 47.3038C9.05131 47.3429 8.99792 47.3824 8.96685 47.4178C8.87471 47.4825 8.90068 47.5134 8.82258 47.5741L8.82374 47.573C8.77263 47.6112 8.72507 47.6489 8.68218 47.6859C8.63054 47.7243 8.58217 47.7621 8.54257 47.7985C8.45533 47.8618 8.48614 47.8913 8.39638 47.9554L8.39396 47.9579C8.35296 47.9941 8.29882 48.0332 8.26899 48.0671C8.10095 48.1963 8.27791 48.1947 8.13226 48.3155L8.13694 48.3122C8.05982 48.3691 7.99812 48.4226 7.96431 48.4697C7.86926 48.6107 7.71769 48.7664 7.4651 48.9587C7.23695 48.8682 6.81726 49.1635 6.4481 49.3524C6.38428 49.382 6.32236 49.4137 6.26147 49.448C6.14811 49.5169 6.06024 49.5833 5.99094 49.6483C5.96238 49.678 5.9412 49.705 5.92773 49.7296C5.92421 49.7587 5.91149 49.791 5.85608 49.8387L5.85846 49.8362C5.74073 49.9238 5.82841 49.9439 5.70064 50.0348C5.62573 50.1011 5.50426 50.1645 5.40572 50.2292C5.26789 50.33 5.13944 50.4296 5.02508 50.5273C4.96397 50.5773 4.91965 50.6231 4.88092 50.6674L4.88449 50.6622C4.70407 50.7964 4.8947 50.7907 4.73694 50.9163L4.73812 50.9151C4.61004 51.013 4.72546 51.023 4.60484 51.1182C4.50102 51.2279 4.48228 51.2974 4.63099 51.2877L4.61922 51.2895C4.65241 51.2955 4.70767 51.2847 4.76324 51.2737L4.76069 51.2737C4.84271 51.2617 4.8188 51.3173 4.91928 51.2935L4.91438 51.2917C5.01863 51.3203 5.26467 51.0084 5.33389 51.1213C5.87976 50.9782 5.90233 50.7023 6.32645 50.5252C6.28055 50.6225 6.08777 50.7757 6.13179 50.8453C6.18259 50.9257 6.32095 50.8458 6.50916 50.713C6.53147 50.6999 6.55383 50.6867 6.5761 50.6737C6.81699 50.5704 7.04875 50.4489 7.27962 50.3257C7.3805 50.2968 7.47227 50.2871 7.55091 50.3057C7.57532 50.3115 7.72642 50.2207 7.8034 50.1653C7.90316 50.0849 7.96198 50.0174 7.97842 49.9624C7.98065 49.9509 7.97036 49.9509 7.95922 49.9538C7.9639 49.9515 7.96738 49.95 7.97384 49.9467C8.02371 49.9218 8.04988 49.9295 8.07976 49.9269C8.13105 49.9165 8.18613 49.8997 8.24319 49.8796C8.14738 49.9511 8.0548 50.0216 8.03683 50.07C7.90939 50.1057 7.78703 50.1688 7.66954 50.2583C7.62123 50.2956 7.57292 50.3329 7.52461 50.3702C7.26035 50.4926 7.1205 50.6201 6.96552 50.7454C6.84983 50.839 6.8869 50.8679 7.05494 50.8068C7.16254 50.7677 7.28149 50.711 7.39533 50.6621L7.39538 50.6621C7.39538 50.6621 7.39538 50.6621 7.39539 50.6621L7.39519 50.6623C7.3913 50.6934 7.38746 50.7245 7.38372 50.7556C7.38364 50.7557 7.38359 50.7557 7.38355 50.7557C6.81216 51.0303 6.81216 51.0303 6.53068 51.2473C6.71974 51.1592 6.88193 51.0822 7.04382 51.009C7.12302 50.9731 7.1657 50.9696 7.10567 51.0202C7.07943 51.0424 7.02104 51.0705 6.97724 51.0959C6.97719 51.0959 6.97719 51.0959 6.97719 51.0959C6.97719 51.0959 6.97719 51.0959 6.97724 51.0959C6.85703 51.1471 6.75362 51.202 6.69612 51.2676L6.69617 51.2676L6.69612 51.2676C6.69612 51.2676 6.69465 51.269 6.69465 51.269L6.69465 51.269C6.54685 51.3615 6.39858 51.4531 6.22494 51.5294C6.02707 51.6164 5.86015 51.7247 5.68533 51.8274C5.64475 51.8503 5.60312 51.8714 5.56051 51.8906C5.43963 51.9864 5.23758 52.0437 5.12114 52.1416L5.12398 52.1397C5.03657 52.2133 4.84192 52.2792 4.79424 52.3558ZM87.653 9.32561C87.6561 9.32315 87.6587 9.32106 87.6618 9.31866C87.6636 9.31876 87.6659 9.31856 87.6678 9.31864C87.6629 9.32098 87.6579 9.32328 87.653 9.32566C87.6529 9.32568 87.6529 9.32572 87.6529 9.32572C87.6529 9.32567 87.653 9.32563 87.653 9.32561ZM15.2992 47.9186C15.2945 47.9202 15.29 47.9219 15.2854 47.9236C15.3227 47.9042 15.3599 47.885 15.3992 47.8638C15.365 47.8831 15.3319 47.9011 15.2992 47.9186ZM87.2241 9.57526C87.2272 9.57467 87.2304 9.57405 87.2335 9.57346C87.2334 9.57349 87.2241 9.57523 87.2242 9.57524C87.2219 9.57631 87.2197 9.5774 87.2174 9.57849C87.2086 9.57821 87.1998 9.5779 87.1912 9.57752C87.2028 9.57602 87.214 9.57509 87.2241 9.57526ZM80.3253 11.7596C80.33 11.758 80.3345 11.7563 80.3391 11.7547C80.3018 11.7741 80.2646 11.7933 80.2253 11.8145C80.2595 11.7951 80.2926 11.7771 80.3253 11.7596ZM8.39107 50.1048C8.39117 50.1047 8.40042 50.103 8.40041 50.103C8.40268 50.1019 8.4049 50.1008 8.40721 50.0997C8.41605 50.1 8.42485 50.1003 8.43346 50.1007C8.42174 50.1022 8.41058 50.1031 8.40046 50.103C8.39731 50.1036 8.39419 50.1042 8.39107 50.1048ZM7.97147 50.3526C7.97152 50.3526 7.97156 50.3526 7.97156 50.3526C7.97157 50.3526 7.97153 50.3526 7.97154 50.3526C7.9684 50.3551 7.96578 50.3572 7.96273 50.3596C7.96091 50.3595 7.95859 50.3597 7.95672 50.3596C7.96164 50.3573 7.96658 50.355 7.97147 50.3526Z" fill="#F42362"/>
<path d="M1.79473 8.29693C1.93546 8.53476 2.394 8.61973 2.6499 8.80213C2.71479 8.89235 2.87783 8.97545 3.03204 9.05919C3.16411 9.06187 3.33069 9.10165 3.54779 9.19595C3.55211 9.22588 3.64617 9.28217 3.73373 9.33644C3.82783 9.38585 3.92069 9.42745 4.01344 9.46652C4.07385 9.49273 4.13404 9.51927 4.19418 9.54471C4.31762 9.60027 4.43738 9.66503 4.55608 9.73103C4.8025 9.86822 5.0451 10.0109 5.27749 10.1356C5.16808 10.0803 5.05417 10.02 4.9399 9.95415C4.69628 9.81371 4.46666 9.72817 4.38014 9.78076C4.38025 9.79358 4.38887 9.80941 4.40393 9.8275C4.34532 9.79889 4.28601 9.76884 4.23062 9.74635C4.20478 9.73586 4.19087 9.74825 4.17155 9.75022C4.20781 9.77052 4.2558 9.80264 4.27802 9.8088C4.32712 9.82244 4.36767 9.82746 4.40995 9.83424C4.42094 9.84648 4.43398 9.85945 4.45106 9.87384C4.67173 10.0472 4.92201 10.0924 5.1718 10.226C5.0081 10.1447 4.86456 10.0864 4.8126 10.1045C4.72927 10.1336 4.94019 10.2261 5.04779 10.3004C5.15071 10.3715 5.3258 10.4432 5.38155 10.5147C5.35203 10.4983 5.32248 10.4818 5.29301 10.4654C5.25498 10.444 5.21694 10.4225 5.17868 10.4011L5.17872 10.4011C5.12669 10.3714 5.07466 10.3417 5.02265 10.312C5.08946 10.4619 5.17306 10.5158 5.55515 10.6555C5.75107 10.7597 5.8595 10.8538 5.9681 10.96C5.68991 10.8439 5.46098 10.7889 5.20636 10.6143C5.19593 10.6072 5.15342 10.5929 5.14915 10.5955C5.13751 10.6023 5.12079 10.6112 5.13711 10.6285C5.34781 10.8521 5.65738 11.0743 6.10004 11.2909C6.16919 11.3247 6.19134 11.3262 6.16608 11.2998C6.04744 11.1882 5.77846 11.0953 5.63857 10.9544C5.84451 11.0623 6.00687 11.1476 6.1693 11.2326C6.41099 11.3592 6.3142 11.2223 6.44368 11.2626C6.47152 11.2823 6.4992 11.3019 6.52452 11.3204C6.57575 11.3558 6.62922 11.3911 6.68495 11.426C6.85596 11.6114 7.08031 11.803 7.47042 12.0232C7.62217 12.1089 7.75834 12.2124 7.83437 12.3002C7.89447 12.3692 7.97969 12.4132 8.08423 12.4382C8.27077 12.4927 8.44342 12.5992 8.62078 12.7069C8.90366 12.8786 9.0507 12.9548 9.38979 13.1011C9.43247 13.1268 9.47455 13.1527 9.51534 13.179C9.5819 13.2149 9.64922 13.2483 9.71642 13.2779C9.75499 13.2938 9.79153 13.308 9.82692 13.3212C10.0903 13.4774 10.3572 13.6214 10.6381 13.7189C10.6567 13.7253 10.6823 13.7408 10.7046 13.7521C10.7309 13.7731 10.7612 13.7939 10.7957 13.8147C10.7956 13.8147 10.7956 13.8147 10.7955 13.8147C10.8528 13.8967 10.9413 13.9868 11.1423 14.0757C11.3844 14.1828 11.6131 14.3107 11.8435 14.4368C12.0398 14.5442 12.2199 14.6298 12.3676 14.6497C12.4796 14.6647 12.6126 14.729 12.7592 14.8103C13.3098 15.1158 13.8616 15.42 14.4125 15.7252C14.4942 15.7705 14.5753 15.8165 14.6454 15.8636C14.6381 15.8676 14.6314 15.872 14.6252 15.8767C14.659 15.9119 14.6929 15.947 14.7268 15.9821C14.8265 16.0205 14.926 16.0588 15.0258 16.0973C15.0296 16.0938 15.0328 16.0901 15.0354 16.0863C15.1124 16.1149 15.1889 16.1433 15.2672 16.1725C15.1838 16.0883 14.9987 15.9846 14.988 15.9182C14.9877 15.9162 14.9882 15.9151 14.9881 15.9134C15.0643 15.9602 15.141 16.0068 15.2186 16.053C15.5833 16.3592 16.1013 16.6682 16.5882 16.9765C16.578 16.9834 16.5679 16.9904 16.5578 16.9973C16.6439 17.0457 16.73 17.0941 16.8161 17.1424C16.8732 17.2154 17.1093 17.3079 17.1211 17.376C17.1073 17.3974 17.0878 17.4163 17.1506 17.4715L17.147 17.467C17.1763 17.5014 17.2196 17.5272 17.279 17.5432C17.3219 17.5647 17.3635 17.5876 17.4037 17.6118C17.4321 17.6148 17.4946 17.6443 17.5665 17.6811C17.5929 17.7055 17.6187 17.73 17.6428 17.7544C17.654 17.7657 17.6579 17.775 17.6652 17.7852C17.2083 17.6523 16.6496 17.4376 16.1343 17.1923C15.9007 17.0811 15.6545 16.9441 15.5044 16.9554C15.5044 16.9554 15.5065 16.9579 15.5064 16.9578C15.4853 17.0117 15.2114 16.8965 15.2307 16.9822C15.6182 17.2049 16.0047 17.4172 16.4121 17.6236C16.8829 17.8621 17.3478 18.1248 17.8119 18.3806C17.8909 18.4241 17.9524 18.4853 18.022 18.5384C18.022 18.5384 18.0193 18.5367 18.0193 18.5367C18.049 18.5712 18.0903 18.595 18.1448 18.6065C18.1448 18.6065 18.1436 18.6059 18.1436 18.6059C18.27 18.6324 18.4119 18.7115 18.5495 18.788C18.8947 18.98 19.2351 19.1818 19.5846 19.3624C19.7824 19.4647 19.9444 19.5555 20.0988 19.6684C20.5013 19.9628 20.9555 20.2421 21.4627 20.5031C21.5565 20.5543 21.6503 20.6056 21.744 20.6568C22.1226 20.8545 22.5115 21.0217 22.8836 21.239C23.031 21.2809 23.1846 21.3603 23.3397 21.4494C23.3869 21.4751 23.4341 21.5008 23.4812 21.5265L23.5494 21.5605L23.6137 21.5989L23.6138 21.5997C23.6749 21.6186 23.7264 21.6464 23.7668 21.6847C23.7668 21.6847 23.768 21.6844 23.768 21.6844C23.9476 21.7829 24.1272 21.8814 24.3068 21.9799C24.4166 22.0113 24.5301 22.0729 24.6458 22.1365C25.1038 22.3882 25.5622 22.6394 26.0204 22.8908C26.0668 22.917 26.1132 22.9432 26.1597 22.9694C26.2524 23.0204 26.3451 23.0713 26.4379 23.1222C26.562 23.152 26.6978 23.2192 26.8396 23.2978C27.319 23.5636 27.7989 23.8288 28.2787 24.0943C28.7385 24.3003 29.3773 24.6536 29.836 24.9557C29.917 24.999 29.9982 25.0423 30.0795 25.0856C30.1881 25.1157 30.3019 25.176 30.4179 25.2405C30.6459 25.3673 30.8747 25.4936 31.1031 25.62C31.1501 25.6458 31.1972 25.6716 31.2442 25.6974C31.3339 25.7461 31.4236 25.7948 31.5133 25.8436C31.5134 25.8437 31.515 25.8461 31.515 25.8461C31.6378 25.8858 31.7382 25.9477 31.8286 26.0194C31.8605 26.0317 31.8919 26.0473 31.9227 26.0662C31.9392 26.0633 31.9559 26.0604 31.9728 26.0577C32.0089 26.0664 32.0453 26.0773 32.0819 26.0893C32.089 26.1077 32.1047 26.1331 32.1286 26.1656C32.763 26.5293 33.4353 26.8664 34.0443 27.251C34.0883 27.3033 34.1808 27.3529 34.2703 27.4026C34.3355 27.4377 34.3937 27.4608 34.445 27.4716L34.441 27.4714C34.6409 27.5351 34.8431 27.7025 35.0429 27.7589L35.102 27.7865L35.1553 27.8204C35.5097 27.9588 35.8282 28.2148 36.1854 28.3443L36.1776 28.3412C36.3783 28.4164 36.5761 28.4823 36.7941 28.6141C36.8528 28.6464 36.9118 28.6756 36.9716 28.7022C37.0887 28.7536 37.2046 28.8194 37.3213 28.8716C37.3791 28.8972 37.4355 28.9203 37.4902 28.9399C37.5683 28.9652 37.638 28.9828 37.6999 28.993L37.6992 28.9941C37.855 29.0583 37.9861 29.0928 38.1238 29.1353C38.393 29.2399 38.6968 29.4476 38.9471 29.4955L38.9466 29.4968C39.3378 29.6637 39.6715 29.8936 40.0344 30.0919C40.0395 30.0948 40.0447 30.0977 40.0497 30.1007C40.0601 30.1104 40.0769 30.1226 40.0996 30.1367C40.1777 30.1852 40.2646 30.2312 40.3477 30.2784C40.3633 30.2758 40.3757 30.2712 40.3863 30.2655C40.3893 30.2666 40.3922 30.2678 40.3951 30.2689C40.4009 30.2699 40.4064 30.2708 40.4122 30.2718C40.5343 30.3359 40.6566 30.4001 40.7788 30.4643C40.7467 30.4071 40.6596 30.3521 40.5623 30.2975C40.6739 30.3325 40.7896 30.3865 40.9063 30.4451C40.9832 30.487 41.0601 30.5289 41.137 30.5709C41.1409 30.5701 41.1449 30.5693 41.1488 30.5686C41.2037 30.5959 41.2583 30.6222 41.3122 30.6458C41.7492 30.8697 42.1909 31.0829 42.6266 31.3137C43.1091 31.507 43.5443 31.8324 44.0255 32.0311L44.0206 32.0295C44.445 32.2195 44.828 32.4664 45.2348 32.682C45.2999 32.7188 45.3651 32.7522 45.4326 32.7832C45.5491 32.796 45.5632 32.8665 45.6375 32.9019C45.7035 32.9356 45.7697 32.9666 45.8353 32.9947C46.2473 33.1837 46.6352 33.3981 47.0008 33.6358C47.1547 33.7755 47.407 33.8776 47.6067 33.9997C47.6836 34.0447 47.7542 34.0746 47.8184 34.0894L47.8145 34.0891C48.0836 34.1887 48.3314 34.3816 48.6001 34.4833C48.665 34.5107 48.7301 34.5389 48.7952 34.5676C48.9246 34.6374 49.0623 34.6997 49.1721 34.7704C49.6835 35.0993 50.2483 35.3852 50.7816 35.6945L50.786 35.6962C50.8191 35.7076 50.8383 35.7099 50.8447 35.7039C50.9738 35.777 51.116 35.8454 51.2135 35.9295C51.2135 35.9295 51.2242 35.9318 51.2241 35.9318C51.4046 36.0205 51.5853 36.1094 51.7659 36.1982C51.7704 36.1995 51.7751 36.201 51.7796 36.2023C51.7804 36.2033 51.7815 36.2044 51.7823 36.2053C51.7802 36.2042 51.7782 36.2031 51.7762 36.202C51.7833 36.2096 51.7911 36.2171 51.799 36.2246C51.816 36.2423 51.838 36.2615 51.8658 36.2822C51.8702 36.285 51.8746 36.2877 51.879 36.2903C52.0188 36.3927 52.2119 36.4846 52.3738 36.582C52.5413 36.6826 52.7438 36.7747 52.8529 36.8868C52.981 36.9587 53.1091 37.0305 53.2373 37.1024C53.2393 37.1032 53.2403 37.1034 53.2422 37.1042C53.245 37.1062 53.2479 37.1082 53.2506 37.1102C53.2992 37.1378 53.3484 37.1647 53.3978 37.1913C53.4008 37.1936 53.403 37.1955 53.4064 37.198C53.4064 37.198 53.4077 37.1976 53.4077 37.1976C53.9958 37.5245 54.5841 37.8514 55.1723 38.1784C55.5383 38.3881 55.9021 38.5993 56.2649 38.8112C56.7063 39.0416 57.063 39.3153 57.5102 39.5437C57.5766 39.5859 57.6457 39.6269 57.7177 39.6667C58.0661 39.8607 58.4148 40.0541 58.764 40.2482C58.8306 40.2853 58.8964 40.3218 58.9633 40.3588C59.1294 40.4326 59.2712 40.5269 59.4212 40.614C59.5999 40.7122 59.7766 40.8118 59.9554 40.9097C60.134 40.9928 60.312 41.0764 60.4662 41.1877C60.5201 41.222 60.5762 41.2555 60.6347 41.2877C60.7229 41.3362 60.8117 41.3863 60.8896 41.4004L60.884 41.3996C61.5841 41.741 62.2329 42.1413 62.9142 42.5067C62.984 42.5454 63.0522 42.5835 63.122 42.6225C63.3072 42.7207 63.5053 42.7984 63.6728 42.9186C63.7257 42.9539 63.7811 42.9881 63.8405 43.0213C63.9276 43.0699 64.0144 43.1183 64.1018 43.166C64.1628 43.1982 64.218 43.2202 64.2674 43.2318L64.2639 43.2311C64.7589 43.4429 65.1973 43.7716 65.6949 43.9781C65.9432 44.0629 66.1781 44.2575 66.4268 44.3388L66.4804 44.3619L66.531 44.3926C66.7917 44.49 67.0353 44.6853 67.2976 44.7737L67.3519 44.798L67.4025 44.8291C67.4488 44.8516 67.4742 44.8589 67.483 44.8541C67.4839 44.8546 67.4848 44.8551 67.4858 44.8557C67.69 44.969 67.8941 45.083 68.099 45.1959C68.171 45.2361 68.2377 45.2642 68.2993 45.2803L68.2954 45.2794C68.4911 45.3487 68.6658 45.471 68.8514 45.5659C68.9169 45.6013 68.9757 45.6248 69.0279 45.6362L69.0234 45.6355C69.1705 45.679 69.3347 45.806 69.4806 45.8439L69.4802 45.8439C69.7211 45.9306 69.9322 46.0821 70.1599 46.1973C70.2283 46.2348 70.2908 46.2605 70.3474 46.2742L70.3431 46.2732C70.4908 46.316 70.6558 46.4452 70.8025 46.4829L70.8565 46.5061L70.9073 46.5371C71.0636 46.591 71.2321 46.7163 71.3864 46.758C71.6324 46.8399 71.8691 47.0389 72.1156 47.1146C72.3214 47.1891 72.5043 47.3167 72.6988 47.4171C72.7949 47.4699 72.8918 47.5271 72.9829 47.5489C73.2822 47.6585 73.5558 47.8828 73.8563 47.9871L73.8541 47.9863C74.188 48.1229 74.4815 48.3245 74.7987 48.4879C74.8728 48.5307 74.9406 48.5592 75.002 48.5733L74.9979 48.5728C75.319 48.7058 75.6024 48.898 75.9075 49.0565C75.974 49.0938 76.0413 49.1296 76.1096 49.1642C76.3046 49.2203 76.4988 49.3372 76.693 49.4446C76.7614 49.4819 76.8233 49.5072 76.8775 49.5185L76.8728 49.5179C77.0197 49.5618 77.1861 49.6913 77.3307 49.7253L77.3266 49.7238C77.4282 49.755 77.5423 49.8241 77.6467 49.8641C77.7425 49.8928 77.8583 49.9491 77.9519 49.9748L77.9487 49.9739C78.0514 50.0064 78.1543 50.0659 78.257 50.1216C78.3115 50.1482 78.36 50.1663 78.4015 50.1746L78.397 50.1738C78.5421 50.2152 78.7118 50.3489 78.8537 50.3782C78.9627 50.4157 79.0833 50.4886 79.1927 50.5272C79.3213 50.5591 79.4862 50.677 79.6135 50.7056C79.7091 50.7363 79.828 50.8084 79.9174 50.8281C79.9845 50.8533 80.0415 50.8679 80.0966 50.8805C80.1573 50.8999 80.2151 50.9165 80.2651 50.9255C80.3307 50.9481 80.3907 50.9655 80.4366 50.9694C80.544 51.0075 80.5505 50.9662 80.6456 50.9946L80.6443 50.9944C80.705 51.0119 80.769 51.0326 80.8127 51.0345L80.7985 51.0288C80.8515 51.0489 80.8899 51.0564 80.9137 51.0514C80.9419 51.0318 80.9609 51.0062 81.051 51.0262L81.0457 51.0255C81.2089 51.0727 81.1605 50.9795 81.2861 51.0017C81.2804 50.9868 81.292 50.9822 81.3206 50.9879C81.5388 51.0372 81.4084 50.8676 81.6238 50.915L81.6213 50.9146C81.7239 50.9453 81.7331 50.907 81.8228 50.9282C81.9213 50.9583 82.0481 51.0373 82.1381 51.0528L82.1287 51.0505C82.1965 51.0769 82.2519 51.0897 82.311 51.1066L82.3128 51.1072C82.369 51.1224 82.4265 51.1389 82.4805 51.1521C82.5416 51.1703 82.6043 51.19 82.6502 51.194C82.756 51.2303 82.7632 51.1899 82.8573 51.2171L82.8557 51.2168C82.9162 51.2355 82.974 51.2516 83.0284 51.2643C83.0893 51.2834 83.1477 51.3001 83.1996 51.3104C83.3014 51.3435 83.3045 51.3001 83.4083 51.3348L83.4117 51.3352C83.4643 51.3468 83.5272 51.3675 83.5712 51.3713C83.7726 51.4306 83.6619 51.2858 83.843 51.3318L83.8377 51.3299C83.9283 51.3586 84.0066 51.3767 84.0631 51.3757C84.2282 51.3676 84.4393 51.3972 84.7404 51.4875C84.8134 51.731 85.2955 51.8959 85.6661 52.0844C85.7279 52.1188 85.7901 52.1505 85.8537 52.1796C85.9757 52.2308 86.0801 52.2625 86.1719 52.2798C86.2119 52.2851 86.2454 52.2861 86.2723 52.2821C86.2964 52.2671 86.3286 52.2579 86.3988 52.2743L86.3955 52.2739C86.5343 52.3172 86.4952 52.2326 86.6427 52.2822C86.739 52.3033 86.8619 52.3646 86.9716 52.4061C87.1329 52.4579 87.2874 52.5028 87.4317 52.5372C87.5072 52.5569 87.5692 52.5654 87.6265 52.5701L87.6204 52.5703C87.833 52.6368 87.7108 52.4832 87.9031 52.5363L87.9014 52.536C88.0545 52.5816 87.9906 52.4804 88.1369 52.5214C88.2838 52.5398 88.3478 52.5126 88.2485 52.3961L88.2572 52.4046C88.2411 52.3736 88.1988 52.3347 88.1562 52.2956L88.1577 52.2978C88.0979 52.2375 88.1546 52.2232 88.0746 52.1549L88.0762 52.1601C88.0333 52.0566 87.646 52.045 87.6883 51.9188C87.2428 51.5565 87.0209 51.707 86.6251 51.466C86.7268 51.4443 86.9615 51.5093 86.9867 51.4303C87.0159 51.3392 86.8701 51.2741 86.6536 51.2004C86.6299 51.19 86.6062 51.1796 86.5825 51.1693C86.3557 51.0341 86.1207 50.9175 85.8851 50.8027C85.8009 50.7373 85.7368 50.6676 85.7022 50.5914C85.6915 50.5678 85.5296 50.4989 85.4402 50.4694C85.3179 50.4365 85.2307 50.4293 85.1791 50.4495C85.169 50.4547 85.1754 50.4632 85.1844 50.4706C85.1799 50.4681 85.1765 50.4662 85.1701 50.4628C85.1204 50.4369 85.1101 50.4107 85.0896 50.3876C85.05 50.3518 85.0033 50.3167 84.9528 50.282C85.066 50.3171 85.1764 50.3502 85.224 50.3354C85.3297 50.4185 85.4529 50.4807 85.593 50.5226C85.651 50.5396 85.709 50.5565 85.767 50.5735C86.0227 50.7163 86.2053 50.7534 86.3956 50.8044C86.5376 50.8424 86.5365 50.7941 86.3866 50.6931C86.2905 50.6284 86.1742 50.5651 86.0669 50.5012L86.0669 50.5012L86.0672 50.5012C86.093 50.4854 86.1188 50.4695 86.1445 50.4535C86.1446 50.4535 86.1446 50.4536 86.1448 50.4536C86.7051 50.7563 86.7051 50.7563 87.0428 50.8553C86.8594 50.7534 86.7011 50.667 86.5457 50.5784C86.4697 50.5351 86.4406 50.5021 86.5159 50.5205C86.5488 50.5286 86.6061 50.5594 86.6524 50.58C86.6524 50.58 86.6524 50.58 86.6524 50.58C86.7652 50.6477 86.8706 50.6992 86.9556 50.7065L86.9556 50.7065C86.9556 50.7065 86.9556 50.7065 86.9556 50.7065C86.9556 50.7065 86.9576 50.7068 86.9576 50.7068L86.9577 50.7068C87.1187 50.772 87.2796 50.838 87.4444 50.9344C87.6324 51.0441 87.8173 51.1154 88.0028 51.1965C88.0451 51.2159 88.0868 51.2373 88.1276 51.2606C88.2746 51.3015 88.4427 51.4329 88.5885 51.4689L88.5854 51.4677C88.6951 51.4947 88.8652 51.6147 88.9523 51.607C88.8116 51.3692 88.353 51.2842 88.0971 51.1018C88.0322 51.0116 87.8692 50.9285 87.715 50.8448C87.5829 50.8421 87.4164 50.8023 87.1993 50.708C87.195 50.6781 87.1009 50.6218 87.0133 50.5675C86.9192 50.5181 86.8263 50.4765 86.7336 50.4374C86.6732 50.4112 86.613 50.3847 86.5529 50.3593C86.4294 50.3037 86.3097 50.2389 86.191 50.1729C85.9445 50.0357 85.7019 49.8931 85.4695 49.7683C85.579 49.8236 85.6929 49.8839 85.8071 49.9498C86.0508 50.0903 86.2804 50.1758 86.3669 50.1232C86.3668 50.1104 86.3582 50.0946 86.3431 50.0765C86.4017 50.1051 86.461 50.1351 86.5164 50.1576C86.5423 50.1681 86.5562 50.1557 86.5755 50.1537C86.5392 50.1334 86.4912 50.1013 86.469 50.0952C86.4199 50.0815 86.3794 50.0765 86.3371 50.0697C86.3261 50.0575 86.3131 50.0445 86.296 50.0301C86.0753 49.8568 85.825 49.8116 85.5752 49.678C85.7389 49.7592 85.8825 49.8176 85.9344 49.7995C86.0177 49.7704 85.8068 49.6779 85.6992 49.6035C85.5963 49.5324 85.4212 49.4607 85.3654 49.3893C85.395 49.4057 85.4245 49.4221 85.454 49.4385C85.492 49.46 85.53 49.4814 85.5683 49.5029L85.5682 49.5028C85.6202 49.5325 85.6723 49.5622 85.7243 49.5919C85.6575 49.442 85.5739 49.3881 85.1918 49.2485C84.9959 49.1442 84.8874 49.0501 84.7789 48.9439C85.057 49.06 85.286 49.1151 85.5406 49.2896C85.551 49.2968 85.5935 49.311 85.5978 49.3084C85.6094 49.3016 85.6262 49.2927 85.6098 49.2754C85.3991 49.0518 85.0896 48.8296 84.647 48.613C84.5778 48.5792 84.5557 48.5777 84.5809 48.6042C84.6996 48.7158 84.9685 48.8087 85.1084 48.9496C84.9024 48.8416 84.7401 48.7564 84.5777 48.6713C84.336 48.5447 84.4328 48.6817 84.3033 48.6414C84.2755 48.6216 84.2478 48.602 84.2225 48.5836C84.1712 48.5481 84.1178 48.5129 84.062 48.4779C83.891 48.2926 83.6667 48.101 83.2766 47.8807C83.1248 47.795 82.9887 47.6916 82.9126 47.6037C82.8525 47.5348 82.7673 47.4907 82.6627 47.4657C82.4762 47.4112 82.3035 47.3047 82.1262 47.197C81.8433 47.0253 81.6962 46.9491 81.3571 46.8028C81.3144 46.7771 81.2724 46.7512 81.2316 46.7249C81.165 46.689 81.0977 46.6556 81.0305 46.6259C80.9919 46.6101 80.9554 46.5959 80.92 46.5827C80.6566 46.4265 80.3897 46.2825 80.1089 46.185C80.0903 46.1786 80.0647 46.1631 80.0423 46.1518C80.016 46.1308 79.9857 46.11 79.9513 46.0892C79.9514 46.0892 79.9514 46.0892 79.9515 46.0892C79.8942 46.0072 79.8057 45.9171 79.6047 45.8282C79.3626 45.7211 79.1339 45.5932 78.9034 45.467C78.7072 45.3597 78.527 45.274 78.3793 45.2542C78.2674 45.2392 78.1344 45.1749 77.9878 45.0936C77.4371 44.7881 76.8853 44.4839 76.3345 44.1787C76.2527 44.1334 76.1717 44.0874 76.1015 44.0403C76.1088 44.0363 76.1155 44.0319 76.1218 44.0272C76.0879 43.992 76.0541 43.9569 76.0201 43.9218C75.9205 43.8834 75.8209 43.8451 75.7212 43.8066C75.7173 43.8101 75.7142 43.8138 75.7115 43.8176C75.6346 43.789 75.5581 43.7606 75.4797 43.7314C75.5632 43.8156 75.7483 43.9193 75.7589 43.9857C75.7592 43.9877 75.7588 43.9888 75.7588 43.9905C75.6827 43.9437 75.6059 43.8971 75.5283 43.8509C75.1637 43.5447 74.6456 43.2357 74.1588 42.9274C74.1689 42.9205 74.179 42.9135 74.1891 42.9066C74.103 42.8582 74.0169 42.8098 73.9308 42.7615C73.8738 42.6885 73.6376 42.596 73.6259 42.5279C73.6396 42.5065 73.6591 42.4876 73.5963 42.4323L73.6 42.4369C73.5706 42.4025 73.5273 42.3767 73.4679 42.3607C73.425 42.3392 73.3834 42.3163 73.3432 42.2921C73.3148 42.2891 73.2523 42.2596 73.1804 42.2228C73.154 42.1984 73.1282 42.1739 73.104 42.1495C73.0928 42.1381 73.089 42.1288 73.0817 42.1186C73.5385 42.2515 74.0973 42.4663 74.6126 42.7116C74.8461 42.8227 75.0923 42.9598 75.2425 42.9484C75.2425 42.9484 75.2404 42.946 75.2404 42.946C75.2616 42.8921 75.5354 43.0073 75.5162 42.9216C75.1287 42.6989 74.7422 42.4866 74.3348 42.2803C73.864 42.0418 73.399 41.7791 72.935 41.5233C72.856 41.4798 72.7945 41.4186 72.7249 41.3655C72.7249 41.3655 72.7276 41.3672 72.7276 41.3672C72.6979 41.3327 72.6566 41.3089 72.6021 41.2974C72.6021 41.2974 72.6033 41.298 72.6033 41.298C72.4769 41.2715 72.335 41.1924 72.1974 41.1159C71.8522 40.9239 71.5118 40.7221 71.1623 40.5415C70.9645 40.4392 70.8025 40.3484 70.6481 40.2355C70.2457 39.9411 69.7914 39.6619 69.2842 39.4008C69.1905 39.3496 69.0967 39.2984 69.0029 39.2471C68.6243 39.0494 68.2354 38.8822 67.8633 38.6649C67.7159 38.623 67.5624 38.5437 67.4072 38.4545C67.3601 38.4288 67.3129 38.4031 67.2658 38.3774L67.1976 38.3434L67.1333 38.305L67.1331 38.3042C67.0721 38.2853 67.0206 38.2575 66.9801 38.2192C66.9801 38.2192 66.9789 38.2195 66.979 38.2195C66.7994 38.121 66.6198 38.0225 66.4401 37.924C66.3304 37.8926 66.2169 37.8311 66.1011 37.7674C65.6432 37.5157 65.1848 37.2645 64.7265 37.0131C64.6801 36.9869 64.6337 36.9607 64.5873 36.9345C64.4946 36.8836 64.4019 36.8327 64.3091 36.7817C64.185 36.752 64.0492 36.6848 63.9074 36.6061C63.428 36.3404 62.9481 36.0751 62.4683 35.8096C62.0085 35.6037 61.3697 35.2504 60.911 34.9482C60.83 34.905 60.7487 34.8617 60.6675 34.8183C60.5588 34.7882 60.4451 34.728 60.3291 34.6635C60.1011 34.5366 59.8724 34.4104 59.6439 34.2839C59.5968 34.2581 59.5498 34.2323 59.5028 34.2066C59.4131 34.1578 59.3235 34.1091 59.2337 34.0603C59.2337 34.0603 59.232 34.0578 59.232 34.0578C59.1092 34.0181 59.0089 33.9563 58.9185 33.8846C58.8866 33.8723 58.8552 33.8567 58.8243 33.8377C58.8078 33.8407 58.7911 33.8436 58.7742 33.8463C58.7382 33.8376 58.7017 33.8266 58.6651 33.8146C58.658 33.7962 58.6423 33.7708 58.6185 33.7384C57.984 33.3747 57.3117 33.0376 56.7027 32.653C56.6587 32.6006 56.5662 32.5511 56.4767 32.5014C56.4114 32.4662 56.3532 32.4431 56.302 32.4323L56.306 32.4326C56.1061 32.3688 55.9039 32.2014 55.7041 32.145L55.645 32.1174L55.5917 32.0835C55.2372 31.9451 54.9188 31.6891 54.5615 31.5597L54.5694 31.5627C54.3686 31.4875 54.1708 31.4217 53.9529 31.2898C53.8941 31.2575 53.8351 31.2283 53.7753 31.2018C53.6583 31.1503 53.5424 31.0845 53.4257 31.0323C53.3678 31.0067 53.3114 30.9836 53.2567 30.964C53.1787 30.9387 53.109 30.9211 53.047 30.9109L53.0477 30.9098C52.892 30.8456 52.7609 30.8111 52.6232 30.7686C52.354 30.6641 52.0502 30.4563 51.7999 30.4085L51.8004 30.4072C51.4092 30.2403 51.0755 30.0103 50.7125 29.812C50.7074 29.8091 50.7023 29.8062 50.6972 29.8033C50.6868 29.7935 50.67 29.7813 50.6474 29.7672C50.5693 29.7187 50.4823 29.6727 50.3992 29.6255C50.3836 29.6282 50.3712 29.6327 50.3606 29.6384C50.3577 29.6373 50.3548 29.6362 50.3518 29.635C50.3461 29.634 50.3405 29.6331 50.3348 29.6321C50.2126 29.568 50.0904 29.5038 49.9681 29.4397C50.0003 29.4969 50.0873 29.5519 50.1846 29.6064C50.073 29.5714 49.9573 29.5174 49.8407 29.4588C49.7638 29.4169 49.6869 29.375 49.61 29.333C49.606 29.3338 49.6021 29.3346 49.5981 29.3353C49.5433 29.308 49.4887 29.2817 49.4347 29.2581C48.9977 29.0343 48.5561 28.821 48.1204 28.5902C47.6379 28.3969 47.2026 28.0715 46.7215 27.8728L46.7263 27.8744C46.3019 27.6844 45.919 27.4375 45.5121 27.2219C45.4471 27.1851 45.3818 27.1517 45.3143 27.1207C45.1979 27.1079 45.1838 27.0374 45.1095 27.002C45.0435 26.9683 44.9773 26.9374 44.9117 26.9092C44.4997 26.7202 44.1118 26.5058 43.7461 26.2681C43.5923 26.1284 43.34 26.0264 43.1402 25.9043C43.0634 25.8593 42.9928 25.8294 42.9286 25.8145L42.9325 25.8148C42.6634 25.7153 42.4156 25.5224 42.1469 25.4206C42.082 25.3932 42.0169 25.365 41.9518 25.3364C41.8224 25.2666 41.6848 25.2043 41.5748 25.1335C41.0635 24.8046 40.4986 24.5187 39.9654 24.2094L39.961 24.2077C39.9278 24.1963 39.9087 24.194 39.9022 24.2C39.7731 24.1269 39.631 24.0584 39.5335 23.9744C39.5335 23.9744 39.5228 23.9722 39.5229 23.9722C39.3424 23.8834 39.1617 23.7945 38.9811 23.7057C38.9766 23.7044 38.9719 23.7029 38.9674 23.7016C38.9666 23.7006 38.9655 23.6996 38.9647 23.6986C38.9668 23.6997 38.9688 23.7008 38.9708 23.7019C38.9637 23.6943 38.956 23.6868 38.948 23.6793C38.931 23.6616 38.909 23.6425 38.8812 23.6217C38.8768 23.6189 38.8724 23.6163 38.868 23.6136C38.7282 23.5112 38.5351 23.4193 38.3732 23.3219C38.2057 23.2213 38.0032 23.1292 37.8941 23.0171C37.766 22.9452 37.6379 22.8734 37.5097 22.8015C37.5077 22.8007 37.5067 22.8005 37.5048 22.7997C37.502 22.7977 37.4991 22.7957 37.4964 22.7937C37.4478 22.7661 37.3986 22.7392 37.3492 22.7126C37.3462 22.7103 37.344 22.7085 37.3406 22.706C37.3406 22.706 37.3393 22.7064 37.3393 22.7064C36.7511 22.3794 36.1629 22.0525 35.5747 21.7255C35.2087 21.5159 34.8449 21.3047 34.4821 21.0928C34.0407 20.8624 33.684 20.5886 33.2368 20.3603C33.1704 20.318 33.1013 20.277 33.0293 20.2373C32.6809 20.0432 32.3322 19.8498 31.983 19.6557C31.9164 19.6186 31.8506 19.5821 31.7837 19.5452C31.6176 19.4713 31.4758 19.3771 31.3258 19.2899C31.1471 19.1918 30.9704 19.0921 30.7916 18.9942C30.6129 18.9111 30.4349 18.8276 30.2808 18.7162C30.2269 18.6819 30.1708 18.6484 30.1123 18.6162C30.0241 18.5678 29.9352 18.5176 29.8574 18.5036L29.863 18.5043C29.1629 18.163 28.5141 17.7627 27.8328 17.3973C27.763 17.3585 27.6948 17.3205 27.625 17.2815C27.4398 17.1832 27.2417 17.1055 27.0742 16.9854C27.0213 16.95 26.9659 16.9159 26.9065 16.8826C26.8194 16.834 26.7326 16.7857 26.6452 16.738C26.5842 16.7057 26.5289 16.6838 26.4796 16.6722L26.4831 16.6729C25.9881 16.461 25.5497 16.1324 25.0521 15.9259C24.8038 15.8411 24.5689 15.6464 24.3202 15.5652L24.2666 15.542L24.216 15.5114C23.9553 15.414 23.7117 15.2186 23.4494 15.1303L23.3951 15.1059L23.3445 15.0749C23.2982 15.0523 23.2728 15.0451 23.264 15.0498C23.2631 15.0493 23.2621 15.0488 23.2612 15.0483C23.0569 14.935 22.8528 14.821 22.6479 14.708C22.576 14.6679 22.5093 14.6397 22.4477 14.6237L22.4516 14.6245C22.2559 14.5553 22.0811 14.433 21.8956 14.3381C21.8301 14.3027 21.7712 14.2792 21.7191 14.2677L21.7236 14.2685C21.5765 14.225 21.4123 14.098 21.2663 14.0601L21.2667 14.0601C21.0259 13.9733 20.8147 13.8219 20.5871 13.7066C20.5187 13.6691 20.4561 13.6435 20.3995 13.6297L20.4039 13.6307C20.2562 13.588 20.0911 13.4587 19.9445 13.4211L19.8904 13.3979L19.8397 13.3669C19.6833 13.313 19.5149 13.1877 19.3606 13.1459C19.1146 13.0641 18.8779 12.865 18.6314 12.7894C18.4256 12.7148 18.2427 12.5873 18.0482 12.4869C17.9521 12.4341 17.8551 12.3769 17.7641 12.3551C17.4648 12.2455 17.1911 12.0211 16.8906 11.9169L16.8929 11.9176C16.559 11.781 16.2655 11.5794 15.9483 11.4161C15.8742 11.3733 15.8064 11.3447 15.745 11.3307L15.7491 11.3312C15.428 11.1982 15.1446 11.006 14.8395 10.8474C14.7729 10.8102 14.7057 10.7744 14.6374 10.7398C14.4425 10.6837 14.2483 10.5668 14.054 10.4594C13.9856 10.4221 13.9237 10.3968 13.8695 10.3855L13.8742 10.3861C13.7273 10.3423 13.561 10.2127 13.4163 10.1787L13.4204 10.1802C13.3187 10.1489 13.2047 10.0798 13.1003 10.0398C13.0046 10.0113 12.8888 9.95485 12.7951 9.92919L12.7983 9.93017C12.6957 9.89759 12.5928 9.83807 12.49 9.78247C12.4356 9.75585 12.3871 9.73773 12.3455 9.72947L12.3501 9.73026C12.205 9.68887 12.0353 9.55513 11.8934 9.5258C11.7845 9.4884 11.6638 9.41541 11.5545 9.37683C11.4259 9.34499 11.2609 9.22707 11.1336 9.19844C11.038 9.16779 10.9192 9.0957 10.8297 9.07595C10.7626 9.05077 10.7056 9.03617 10.6505 9.02354C10.5899 9.00416 10.532 8.98751 10.482 8.97855C10.4165 8.95591 10.3564 8.93855 10.3106 8.93468C10.2031 8.89656 10.1966 8.93787 10.1015 8.90948L10.1028 8.90969C10.0421 8.89212 9.97813 8.87146 9.93441 8.8695L9.94862 8.87521C9.89561 8.85517 9.85721 8.84762 9.83345 8.85263C9.80513 8.87226 9.78618 8.89785 9.69611 8.87789L9.70144 8.87855C9.53822 8.83133 9.5866 8.92459 9.46101 8.90234C9.46669 8.91726 9.45515 8.92182 9.42654 8.91612C9.20831 8.86689 9.33871 9.03651 9.12334 8.98907L9.12584 8.98945C9.0233 8.95883 9.01409 8.9971 8.92433 8.97588C8.82583 8.94582 8.69905 8.86675 8.60905 8.85134L8.61848 8.85355C8.55068 8.82717 8.49528 8.81437 8.43611 8.79744L8.43437 8.79693C8.37818 8.78168 8.32068 8.76513 8.26662 8.75197C8.20554 8.73379 8.14272 8.71402 8.09687 8.71007C7.99112 8.67378 7.98387 8.71414 7.88981 8.68697L7.89138 8.68723C7.83095 8.66855 7.77312 8.65245 7.71871 8.63976C7.65789 8.62069 7.59948 8.60399 7.54755 8.59366C7.44585 8.56058 7.44271 8.60403 7.33887 8.56933L7.33547 8.56888C7.28281 8.5573 7.21992 8.53658 7.17592 8.53277C6.97456 8.47349 7.08527 8.61832 6.90416 8.57228L6.9095 8.57415C6.8189 8.54548 6.74047 8.52738 6.68407 8.52835C6.51897 8.53646 6.30791 8.50693 6.00671 8.41662C5.9338 8.17313 5.45166 8.00818 5.08096 7.81969C5.01917 7.78523 4.957 7.75361 4.89345 7.72447C4.7714 7.67327 4.667 7.64156 4.57517 7.62426C4.53513 7.61891 4.50168 7.61801 4.4748 7.62199C4.45067 7.63693 4.41849 7.64621 4.34829 7.62977L4.35163 7.63021C4.21278 7.58687 4.25189 7.67143 4.10434 7.62184C4.00806 7.6007 3.88516 7.53944 3.77541 7.49789C3.61417 7.44609 3.45965 7.40127 3.31533 7.36685C3.23982 7.34715 3.1779 7.33867 3.12054 7.33393L3.12666 7.33368C2.91397 7.26719 3.03618 7.4208 2.84394 7.36774L2.84558 7.36798C2.69258 7.32241 2.75647 7.42364 2.61011 7.38256C2.4632 7.36424 2.39924 7.39138 2.49857 7.50797L2.48988 7.49941C2.50593 7.53041 2.54823 7.56935 2.5909 7.60841L2.58936 7.60627C2.64913 7.66653 2.59245 7.68088 2.6725 7.74915L2.67086 7.74396C2.71379 7.8474 3.10103 7.85906 3.05879 7.98527C3.50426 8.34749 3.72618 8.19699 4.12193 8.43805C4.02027 8.45981 3.78559 8.39478 3.76034 8.47374C3.73121 8.56483 3.877 8.62992 4.09347 8.70367C4.11716 8.71403 4.1409 8.72439 4.16454 8.73472C4.39139 8.86995 4.62632 8.98651 4.86191 9.10132C4.94615 9.16671 5.01022 9.2364 5.04485 9.31262C5.05558 9.33628 5.21749 9.40515 5.30688 9.43464C5.42917 9.46759 5.5164 9.47472 5.568 9.45459C5.57804 9.44938 5.57171 9.44087 5.56263 9.43347C5.5672 9.43596 5.57053 9.43787 5.57696 9.44122C5.62659 9.46705 5.637 9.49331 5.65741 9.51638C5.69699 9.55226 5.74373 9.58735 5.79421 9.62203C5.68101 9.58692 5.57063 9.55382 5.52306 9.56864C5.41731 9.4855 5.2941 9.4233 5.15393 9.38136C5.09594 9.3644 5.03794 9.34744 4.97994 9.33049C4.72429 9.18766 4.54165 9.15057 4.35137 9.09962C4.20932 9.06158 4.21042 9.1099 4.36042 9.21093C4.45647 9.27562 4.57281 9.33889 4.68004 9.40278L4.68008 9.40281C4.68008 9.40281 4.68008 9.40281 4.68008 9.40282L4.67981 9.40278C4.65395 9.41864 4.62814 9.43453 4.60241 9.4505C4.60231 9.45046 4.60226 9.45044 4.60221 9.45043C4.04185 9.14776 4.04185 9.14776 3.70421 9.04875C3.88751 9.15061 4.04589 9.23708 4.20122 9.32562C4.27722 9.36892 4.3063 9.40192 4.231 9.38348C4.1981 9.37542 4.14076 9.34455 4.09451 9.32402C4.09447 9.324 4.09447 9.324 4.09447 9.324C4.09447 9.324 4.09447 9.324 4.09451 9.32402C3.98162 9.25629 3.87623 9.20475 3.79125 9.19753L3.7913 9.19756L3.79125 9.19753C3.79125 9.19753 3.78925 9.19722 3.78926 9.1972L3.78925 9.19722C3.62818 9.13203 3.4674 9.06599 3.30248 8.96965C3.11455 8.85987 2.92967 8.78868 2.74411 8.70755C2.70176 8.68813 2.66014 8.66673 2.61927 8.64341C2.47231 8.60248 2.30416 8.47107 2.15837 8.43508L2.16152 8.43628C2.05203 8.40931 1.88192 8.2893 1.79473 8.29693ZM85.4774 50.216C85.4812 50.2171 85.4844 50.218 85.4881 50.219C85.4892 50.2206 85.4908 50.2223 85.4919 50.2239C85.4871 50.2213 85.4822 50.2186 85.4774 50.216C85.4774 50.216 85.4773 50.216 85.4773 50.216C85.4774 50.216 85.4774 50.216 85.4774 50.216ZM11.6369 14.2354C11.6327 14.2325 11.6287 14.2298 11.6246 14.227C11.6623 14.2459 11.6998 14.2648 11.7401 14.2842C11.7044 14.2679 11.6703 14.2516 11.6369 14.2354ZM85.024 50.0155C85.0264 50.0177 85.0288 50.02 85.0312 50.0222C85.0311 50.0221 85.0241 50.0155 85.0241 50.0156C85.0219 50.0144 85.0197 50.0132 85.0174 50.012C85.0122 50.0045 85.007 49.9971 85.0019 49.9898C85.0103 49.9984 85.0179 50.0071 85.024 50.0155ZM79.1103 45.6687C79.1144 45.6715 79.1184 45.6742 79.1225 45.677C79.0848 45.6581 79.0474 45.6392 79.007 45.6198C79.0428 45.6361 79.0769 45.6524 79.1103 45.6687ZM5.716 9.88188C5.71608 9.88194 5.72312 9.8885 5.72314 9.88847C5.72535 9.88968 5.72752 9.89086 5.72979 9.89208C5.73505 9.89954 5.74026 9.90698 5.7453 9.9143C5.73692 9.90558 5.72931 9.89694 5.72318 9.88851C5.72075 9.88629 5.71837 9.88408 5.716 9.88188ZM5.26967 9.68794C5.26972 9.68797 5.26977 9.68798 5.26977 9.68798C5.26976 9.68799 5.26971 9.68799 5.2697 9.688C5.2659 9.68693 5.26272 9.68604 5.25902 9.68501C5.25797 9.68344 5.25638 9.68165 5.25528 9.68007C5.26008 9.68269 5.26485 9.68537 5.26967 9.68794Z" fill="#F42362"/>
</svg>
