<svg width="14" height="14" viewBox="0 0 14 14" fill="none" xmlns="http://www.w3.org/2000/svg">
<path d="M8.10531 7.3681C7.69791 7.3681 7.36845 7.69798 7.36845 8.10534C7.36845 8.51195 7.6987 8.8422 8.10531 8.8422C8.51192 8.8422 8.84217 8.51195 8.84217 8.10534C8.84222 7.69798 8.51267 7.3681 8.10531 7.3681ZM5.89473 6.63162C6.30153 6.63162 6.63159 6.30155 6.63159 5.89475C6.63159 5.48768 6.30153 5.15799 5.89473 5.15799C5.48803 5.15799 5.15797 5.48768 5.15797 5.89475C5.15797 6.30155 5.48803 6.63162 5.89473 6.63162ZM8.10531 5.15799C7.69791 5.15799 7.36845 5.48768 7.36845 5.89475C7.36845 6.30155 7.69795 6.63162 8.10531 6.63162C8.51192 6.63162 8.84217 6.30155 8.84217 5.89475C8.84222 5.48768 8.51267 5.15799 8.10531 5.15799ZM8.84222 1.47363H5.15797V2.94735H8.84222V1.47363ZM10.3159 6.63162C10.7224 6.63162 11.0528 6.30155 11.0528 5.89475C11.0528 5.48768 10.7231 5.15799 10.3159 5.15799C9.90853 5.15799 9.57908 5.48768 9.57908 5.89475C9.57908 6.30155 9.90933 6.63162 10.3159 6.63162ZM10.3159 8.8422C10.7224 8.8422 11.0528 8.51195 11.0528 8.10534C11.0528 7.69798 10.7231 7.36848 10.3159 7.36848C9.90853 7.36848 9.57908 7.69798 9.57908 8.10534C9.57908 8.51195 9.90933 8.8422 10.3159 8.8422ZM5.89473 8.8422C6.30153 8.8422 6.63159 8.51195 6.63159 8.10534C6.63159 7.69798 6.30191 7.3681 5.89473 7.3681C5.48766 7.3681 5.15797 7.69798 5.15797 8.10534C5.15797 8.51195 5.48803 8.8422 5.89473 8.8422ZM3.68425 11.0528C4.09095 11.0528 4.42111 10.7224 4.42111 10.316C4.42111 9.90861 4.09095 9.57911 3.68425 9.57911C3.27717 9.57911 2.94739 9.90861 2.94739 10.316C2.94739 10.7224 3.2775 11.0528 3.68425 11.0528ZM12.5263 1.47363H11.7897V2.94735H12.5263V12.5263H1.47372V2.9474H2.21048V1.47363H1.47372C0.659846 1.47363 0 2.13324 0 2.9474V12.526C0 13.3404 0.659846 14.0001 1.47372 14.0001H12.5263C13.3403 14.0001 14 13.3403 14 12.526V2.9474C14 2.13324 13.3403 1.47363 12.5263 1.47363ZM3.68425 8.8422C4.09095 8.8422 4.42111 8.51195 4.42111 8.10534C4.42111 7.69798 4.09095 7.3681 3.68425 7.3681C3.27717 7.3681 2.94739 7.69798 2.94739 8.10534C2.94739 8.51195 3.2775 8.8422 3.68425 8.8422ZM3.68425 6.63162C4.09095 6.63162 4.42111 6.30155 4.42111 5.89475C4.42111 5.48768 4.09095 5.15799 3.68425 5.15799C3.27717 5.15799 2.94739 5.48768 2.94739 5.89475C2.94739 6.30155 3.2775 6.63162 3.68425 6.63162ZM5.89473 11.0528C6.30153 11.0528 6.63159 10.7224 6.63159 10.316C6.63159 9.90861 6.30153 9.57911 5.89473 9.57911C5.48803 9.57911 5.15797 9.90861 5.15797 10.316C5.15797 10.7224 5.48803 11.0528 5.89473 11.0528ZM3.68425 2.9474C4.09095 2.9474 4.42111 2.61734 4.42111 2.21054V0.736909C4.42111 0.329689 4.09133 0 3.68425 0C3.2775 0 2.94739 0.32969 2.94739 0.736862V2.21049C2.94739 2.61734 3.2775 2.9474 3.68425 2.9474ZM10.3159 2.9474C10.7224 2.9474 11.0528 2.61734 11.0528 2.21054V0.736909C11.0528 0.329689 10.7224 0 10.3159 0C9.90853 0 9.57908 0.32969 9.57908 0.736862V2.21049C9.57908 2.61734 9.90933 2.9474 10.3159 2.9474Z" fill="black"/>
</svg>
