<svg width="19" height="13" viewBox="0 0 19 13" fill="none" xmlns="http://www.w3.org/2000/svg">
<path d="M18.8793 5.6854C18.7095 5.4532 14.6652 0 9.49992 0C4.33461 0 0.290122 5.4532 0.120569 5.68517C-0.0401896 5.90546 -0.0401896 6.20422 0.120569 6.42451C0.290122 6.6567 4.33461 12.1099 9.49992 12.1099C14.6652 12.1099 18.7095 6.65666 18.8793 6.42469C19.0402 6.20445 19.0402 5.90545 18.8793 5.6854ZM9.49992 10.8572C5.69512 10.8572 2.39976 7.23776 1.42426 6.05452C2.3985 4.87025 5.68695 1.25274 9.49992 1.25274C13.3045 1.25274 16.5997 4.87151 17.5756 6.05538C16.6013 7.23961 13.3129 10.8572 9.49992 10.8572Z" fill="black"/>
<ellipse cx="9.49999" cy="6.08713" rx="3.76415" ry="3.67453" fill="black"/>
</svg>
