<svg width="14" height="14" viewBox="0 0 14 14" fill="none" xmlns="http://www.w3.org/2000/svg">
<path fill-rule="evenodd" clip-rule="evenodd" d="M6.37559 0.0164319C6.37559 0.0261761 6.31533 0.0328638 6.2277 0.0328638C6.14007 0.0328638 6.07981 0.0395516 6.07981 0.0492958C6.07981 0.0586784 6.03052 0.0657277 5.96479 0.0657277C5.89906 0.0657277 5.84976 0.072777 5.84976 0.0821596C5.84976 0.0911972 5.81279 0.0985915 5.76761 0.0985915C5.72242 0.0985915 5.68545 0.105986 5.68545 0.115023C5.68545 0.124061 5.64847 0.131455 5.60329 0.131455C5.5581 0.131455 5.52113 0.13885 5.52113 0.147887C5.52113 0.156925 5.48415 0.164319 5.43897 0.164319C5.39378 0.164319 5.35681 0.171714 5.35681 0.180751C5.35681 0.189789 5.32723 0.197183 5.29108 0.197183C5.25493 0.197183 5.22535 0.204577 5.22535 0.213615C5.22535 0.222653 5.20317 0.230047 5.17606 0.230047C5.14894 0.230047 5.12676 0.237441 5.12676 0.246479C5.12676 0.255516 5.09718 0.262911 5.06103 0.262911C5.02488 0.262911 4.99531 0.270305 4.99531 0.279343C4.99531 0.28838 4.97312 0.295775 4.94601 0.295775C4.9189 0.295775 4.89671 0.303169 4.89671 0.312207C4.89671 0.321244 4.87453 0.328638 4.84742 0.328638C4.8203 0.328638 4.79812 0.336033 4.79812 0.34507C4.79812 0.354108 4.77594 0.361502 4.74883 0.361502C4.72171 0.361502 4.69953 0.368897 4.69953 0.377934C4.69953 0.386972 4.67735 0.394366 4.65023 0.394366C4.62312 0.394366 4.60094 0.401761 4.60094 0.410798C4.60094 0.419836 4.57876 0.42723 4.55164 0.42723C4.52453 0.42723 4.50235 0.434624 4.50235 0.443662C4.50235 0.4527 4.48756 0.460094 4.46948 0.460094C4.45141 0.460094 4.43662 0.467488 4.43662 0.476526C4.43662 0.485563 4.41444 0.492958 4.38732 0.492958C4.36021 0.492958 4.33803 0.500352 4.33803 0.50939C4.33803 0.518427 4.32324 0.525822 4.30516 0.525822C4.28709 0.525822 4.2723 0.533216 4.2723 0.542253C4.2723 0.551291 4.25751 0.558685 4.23944 0.558685C4.22136 0.558685 4.20657 0.56608 4.20657 0.575117C4.20657 0.584155 4.18439 0.591549 4.15728 0.591549C4.13016 0.591549 4.10798 0.598944 4.10798 0.607981C4.10798 0.617019 4.09319 0.624413 4.07512 0.624413C4.05704 0.624413 4.04225 0.631807 4.04225 0.640845C4.04225 0.649883 4.02746 0.657277 4.00939 0.657277C3.99131 0.657277 3.97653 0.664671 3.97653 0.673709C3.97653 0.682746 3.96174 0.690141 3.94366 0.690141C3.92559 0.690141 3.9108 0.697535 3.9108 0.706573C3.9108 0.71561 3.89601 0.723005 3.87793 0.723005C3.85986 0.723005 3.84507 0.730399 3.84507 0.739437C3.84507 0.748474 3.83028 0.755868 3.81221 0.755868C3.79413 0.755868 3.77934 0.763263 3.77934 0.7723C3.77934 0.781338 3.76455 0.788732 3.74648 0.788732C3.7284 0.788732 3.71361 0.796127 3.71361 0.805164C3.71361 0.814202 3.69883 0.821596 3.68075 0.821596C3.66268 0.821596 3.64789 0.828991 3.64789 0.838028C3.64789 0.847066 3.6331 0.85446 3.61502 0.85446C3.59695 0.85446 3.58216 0.861854 3.58216 0.870892C3.58216 0.87993 3.569 0.887324 3.55293 0.887324C3.53684 0.887324 3.51303 0.902113 3.5 0.920188C3.48697 0.938263 3.46316 0.953052 3.44707 0.953052C3.431 0.953052 3.41784 0.960446 3.41784 0.969483C3.41784 0.978521 3.40468 0.985915 3.38861 0.985915C3.37252 0.985915 3.34871 1.0007 3.33568 1.01878C3.32265 1.03685 3.30047 1.05164 3.28638 1.05164C3.2723 1.05164 3.25012 1.06643 3.23709 1.08451C3.22406 1.10258 3.20188 1.11737 3.18779 1.11737C3.17371 1.11737 3.15153 1.13216 3.1385 1.15023C3.12547 1.16831 3.10328 1.1831 3.0892 1.1831C3.07512 1.1831 3.05294 1.19789 3.03991 1.21596C3.02688 1.23404 3.00469 1.24883 2.99061 1.24883C2.97653 1.24883 2.95434 1.26361 2.94131 1.28169C2.92828 1.29977 2.90743 1.31455 2.89498 1.31455C2.88254 1.31455 2.85161 1.33674 2.82629 1.36385C2.80097 1.39096 2.77154 1.41315 2.76089 1.41315C2.75026 1.41315 2.71314 1.44272 2.6784 1.47887C2.64367 1.51502 2.60669 1.5446 2.59624 1.5446C2.58579 1.5446 2.54882 1.57418 2.51408 1.61033C2.47935 1.64648 2.44292 1.67606 2.43312 1.67606C2.40999 1.67606 1.67606 2.40977 1.67606 2.43289C1.67606 2.44257 1.63908 2.4865 1.5939 2.53052C1.54871 2.57454 1.51174 2.61915 1.51174 2.62967C1.51174 2.64018 1.48955 2.66951 1.46244 2.69484C1.43533 2.72016 1.41315 2.74973 1.41315 2.76056C1.41315 2.77139 1.39096 2.80097 1.36385 2.82629C1.33674 2.85161 1.31455 2.88254 1.31455 2.89498C1.31455 2.90743 1.29977 2.92828 1.28169 2.94131C1.26361 2.95434 1.24883 2.9752 1.24883 2.98765C1.24883 3.00009 1.22664 3.03102 1.19953 3.05634C1.17242 3.08166 1.15023 3.11258 1.15023 3.12502C1.15023 3.13748 1.13545 3.15833 1.11737 3.17136C1.0993 3.18439 1.08451 3.2082 1.08451 3.22429C1.08451 3.24036 1.07711 3.25352 1.06808 3.25352C1.05904 3.25352 1.05164 3.26668 1.05164 3.28275C1.05164 3.29884 1.03685 3.32265 1.01878 3.33568C1.0007 3.34871 0.985915 3.37252 0.985915 3.38861C0.985915 3.40468 0.978521 3.41784 0.969483 3.41784C0.960446 3.41784 0.953052 3.431 0.953052 3.44707C0.953052 3.46316 0.938263 3.48697 0.920188 3.5C0.902113 3.51303 0.887324 3.53684 0.887324 3.55293C0.887324 3.569 0.87993 3.58216 0.870892 3.58216C0.861854 3.58216 0.85446 3.59695 0.85446 3.61502C0.85446 3.6331 0.847066 3.64789 0.838028 3.64789C0.828991 3.64789 0.821596 3.66268 0.821596 3.68075C0.821596 3.69883 0.814202 3.71361 0.805164 3.71361C0.796127 3.71361 0.788732 3.7284 0.788732 3.74648C0.788732 3.76455 0.781338 3.77934 0.7723 3.77934C0.763263 3.77934 0.755868 3.79413 0.755868 3.81221C0.755868 3.83028 0.748474 3.84507 0.739437 3.84507C0.730399 3.84507 0.723005 3.85986 0.723005 3.87793C0.723005 3.89601 0.71561 3.9108 0.706573 3.9108C0.697535 3.9108 0.690141 3.92559 0.690141 3.94366C0.690141 3.96174 0.682746 3.97653 0.673709 3.97653C0.664671 3.97653 0.657277 3.99131 0.657277 4.00939C0.657277 4.02746 0.649883 4.04225 0.640845 4.04225C0.631807 4.04225 0.624413 4.05704 0.624413 4.07512C0.624413 4.09319 0.617019 4.10798 0.607981 4.10798C0.598944 4.10798 0.591549 4.12277 0.591549 4.14084C0.591549 4.15892 0.584155 4.17371 0.575117 4.17371C0.56608 4.17371 0.558685 4.19589 0.558685 4.223C0.558685 4.25012 0.551291 4.2723 0.542253 4.2723C0.533216 4.2723 0.525822 4.28709 0.525822 4.30516C0.525822 4.32324 0.518427 4.33803 0.50939 4.33803C0.500352 4.33803 0.492958 4.35282 0.492958 4.37089C0.492958 4.38897 0.485563 4.40376 0.476526 4.40376C0.467488 4.40376 0.460094 4.42594 0.460094 4.45305C0.460094 4.48016 0.4527 4.50235 0.443662 4.50235C0.434624 4.50235 0.42723 4.52453 0.42723 4.55164C0.42723 4.57876 0.419836 4.60094 0.410798 4.60094C0.401761 4.60094 0.394366 4.61573 0.394366 4.6338C0.394366 4.65188 0.386972 4.66667 0.377934 4.66667C0.368897 4.66667 0.361502 4.68885 0.361502 4.71596C0.361502 4.74307 0.354108 4.76526 0.34507 4.76526C0.336033 4.76526 0.328638 4.78744 0.328638 4.81455C0.328638 4.84167 0.321244 4.86385 0.312207 4.86385C0.303169 4.86385 0.295775 4.89343 0.295775 4.92958C0.295775 4.96573 0.28838 4.99531 0.279343 4.99531C0.270305 4.99531 0.262911 5.01749 0.262911 5.0446C0.262911 5.07171 0.255516 5.0939 0.246479 5.0939C0.237441 5.0939 0.230047 5.12347 0.230047 5.15962C0.230047 5.19577 0.222653 5.22535 0.213615 5.22535C0.204577 5.22535 0.197183 5.25493 0.197183 5.29108C0.197183 5.32723 0.189789 5.35681 0.180751 5.35681C0.171714 5.35681 0.164319 5.38638 0.164319 5.42253C0.164319 5.45868 0.156925 5.48826 0.147887 5.48826C0.13885 5.48826 0.131455 5.52523 0.131455 5.57042C0.131455 5.61561 0.124061 5.65258 0.115023 5.65258C0.105887 5.65258 0.0985915 5.69641 0.0985915 5.75117C0.0985915 5.80594 0.0912958 5.84976 0.0821596 5.84976C0.0730235 5.84976 0.0657277 5.89359 0.0657277 5.94836C0.0657277 6.00312 0.0584319 6.04695 0.0492958 6.04695C0.0395516 6.04695 0.0328638 6.1072 0.0328638 6.19484C0.0328638 6.28247 0.0261761 6.34272 0.0164319 6.34272C0.00575117 6.34272 0 6.57277 0 7C0 7.42723 0.00575117 7.65728 0.0164319 7.65728C0.0261761 7.65728 0.0328638 7.71753 0.0328638 7.80516C0.0328638 7.8928 0.0395516 7.95305 0.0492958 7.95305C0.0586784 7.95305 0.0657277 8.00235 0.0657277 8.06807C0.0657277 8.1338 0.072777 8.1831 0.0821596 8.1831C0.0911972 8.1831 0.0985915 8.22007 0.0985915 8.26526C0.0985915 8.31045 0.105986 8.34742 0.115023 8.34742C0.124061 8.34742 0.131455 8.38439 0.131455 8.42958C0.131455 8.47476 0.13885 8.51174 0.147887 8.51174C0.156925 8.51174 0.164319 8.54131 0.164319 8.57746C0.164319 8.61361 0.171714 8.64319 0.180751 8.64319C0.189789 8.64319 0.197183 8.67277 0.197183 8.70892C0.197183 8.74507 0.204577 8.77465 0.213615 8.77465C0.222653 8.77465 0.230047 8.80422 0.230047 8.84037C0.230047 8.87652 0.237441 8.9061 0.246479 8.9061C0.255516 8.9061 0.262911 8.92829 0.262911 8.9554C0.262911 8.98251 0.270305 9.00469 0.279343 9.00469C0.28838 9.00469 0.295775 9.02688 0.295775 9.05399C0.295775 9.0811 0.303169 9.10329 0.312207 9.10329C0.321244 9.10329 0.328638 9.13286 0.328638 9.16901C0.328638 9.20516 0.336033 9.23474 0.34507 9.23474C0.354108 9.23474 0.361502 9.24953 0.361502 9.2676C0.361502 9.28568 0.368897 9.30047 0.377934 9.30047C0.386972 9.30047 0.394366 9.32265 0.394366 9.34976C0.394366 9.37688 0.401761 9.39906 0.410798 9.39906C0.419836 9.39906 0.42723 9.42124 0.42723 9.44836C0.42723 9.47547 0.434624 9.49765 0.443662 9.49765C0.4527 9.49765 0.460094 9.51984 0.460094 9.54695C0.460094 9.57406 0.467488 9.59624 0.476526 9.59624C0.485563 9.59624 0.492958 9.61103 0.492958 9.62911C0.492958 9.64718 0.500352 9.66197 0.50939 9.66197C0.518427 9.66197 0.525822 9.67676 0.525822 9.69483C0.525822 9.71291 0.533216 9.7277 0.542253 9.7277C0.551291 9.7277 0.558685 9.74988 0.558685 9.77699C0.558685 9.80411 0.56608 9.82629 0.575117 9.82629C0.584155 9.82629 0.591549 9.84108 0.591549 9.85915C0.591549 9.87723 0.598944 9.89202 0.607981 9.89202C0.617019 9.89202 0.624413 9.90681 0.624413 9.92488C0.624413 9.94296 0.631807 9.95775 0.640845 9.95775C0.649883 9.95775 0.657277 9.97253 0.657277 9.99061C0.657277 10.0087 0.664671 10.0235 0.673709 10.0235C0.682746 10.0235 0.690141 10.0383 0.690141 10.0563C0.690141 10.0744 0.697535 10.0892 0.706573 10.0892C0.71561 10.0892 0.723005 10.104 0.723005 10.1221C0.723005 10.1401 0.730399 10.1549 0.739437 10.1549C0.748474 10.1549 0.755868 10.1697 0.755868 10.1878C0.755868 10.2059 0.763263 10.2207 0.7723 10.2207C0.781338 10.2207 0.788732 10.2354 0.788732 10.2535C0.788732 10.2716 0.796127 10.2864 0.805164 10.2864C0.814202 10.2864 0.821596 10.3012 0.821596 10.3192C0.821596 10.3373 0.828991 10.3521 0.838028 10.3521C0.847066 10.3521 0.85446 10.3669 0.85446 10.385C0.85446 10.4031 0.861854 10.4178 0.870892 10.4178C0.87993 10.4178 0.887324 10.431 0.887324 10.4471C0.887324 10.4632 0.902113 10.487 0.920188 10.5C0.938263 10.513 0.953052 10.5368 0.953052 10.5529C0.953052 10.569 0.960446 10.5822 0.969483 10.5822C0.978521 10.5822 0.985915 10.5953 0.985915 10.6114C0.985915 10.6275 1.0007 10.6513 1.01878 10.6643C1.03685 10.6773 1.05164 10.7012 1.05164 10.7172C1.05164 10.7333 1.05904 10.7465 1.06808 10.7465C1.07711 10.7465 1.08451 10.7596 1.08451 10.7757C1.08451 10.7918 1.0993 10.8156 1.11737 10.8286C1.13545 10.8417 1.15023 10.8625 1.15023 10.875C1.15023 10.8874 1.17242 10.9183 1.19953 10.9437C1.22664 10.969 1.24883 10.9999 1.24883 11.0123C1.24883 11.0248 1.26361 11.0457 1.28169 11.0587C1.29977 11.0717 1.31455 11.0926 1.31455 11.105C1.31455 11.1175 1.33674 11.1484 1.36385 11.1737C1.39096 11.199 1.41315 11.2286 1.41315 11.2394C1.41315 11.2503 1.43533 11.2798 1.46244 11.3052C1.48955 11.3305 1.51174 11.3598 1.51174 11.3703C1.51174 11.3808 1.54871 11.4255 1.5939 11.4695C1.63908 11.5135 1.67606 11.5574 1.67606 11.5671C1.67606 11.5902 2.40999 12.3239 2.43312 12.3239C2.44292 12.3239 2.47935 12.3535 2.51408 12.3897C2.54882 12.4258 2.58579 12.4554 2.59624 12.4554C2.60669 12.4554 2.64367 12.485 2.6784 12.5211C2.71314 12.5573 2.75026 12.5869 2.76089 12.5869C2.77154 12.5869 2.80097 12.609 2.82629 12.6361C2.85161 12.6633 2.88254 12.6854 2.89498 12.6854C2.90743 12.6854 2.92828 12.7002 2.94131 12.7183C2.95434 12.7364 2.97653 12.7512 2.99061 12.7512C3.00469 12.7512 3.02688 12.766 3.03991 12.784C3.05294 12.8021 3.07512 12.8169 3.0892 12.8169C3.10328 12.8169 3.12547 12.8317 3.1385 12.8498C3.15153 12.8678 3.17371 12.8826 3.18779 12.8826C3.20188 12.8826 3.22406 12.8974 3.23709 12.9155C3.25012 12.9336 3.2723 12.9484 3.28638 12.9484C3.30047 12.9484 3.32265 12.9631 3.33568 12.9812C3.34871 12.9993 3.37252 13.0141 3.38861 13.0141C3.40468 13.0141 3.41784 13.0215 3.41784 13.0305C3.41784 13.0396 3.43263 13.0469 3.4507 13.0469C3.46878 13.0469 3.48357 13.0543 3.48357 13.0634C3.48357 13.0724 3.49673 13.0798 3.5128 13.0798C3.52889 13.0798 3.5527 13.0946 3.56573 13.1127C3.57876 13.1308 3.60257 13.1455 3.61865 13.1455C3.63473 13.1455 3.64789 13.1529 3.64789 13.162C3.64789 13.171 3.66268 13.1784 3.68075 13.1784C3.69883 13.1784 3.71361 13.1858 3.71361 13.1948C3.71361 13.2039 3.7284 13.2113 3.74648 13.2113C3.76455 13.2113 3.77934 13.2187 3.77934 13.2277C3.77934 13.2367 3.79413 13.2441 3.81221 13.2441C3.83028 13.2441 3.84507 13.2515 3.84507 13.2606C3.84507 13.2696 3.85986 13.277 3.87793 13.277C3.89601 13.277 3.9108 13.2844 3.9108 13.2934C3.9108 13.3025 3.92559 13.3099 3.94366 13.3099C3.96174 13.3099 3.97653 13.3173 3.97653 13.3263C3.97653 13.3353 3.99131 13.3427 4.00939 13.3427C4.02746 13.3427 4.04225 13.3501 4.04225 13.3592C4.04225 13.3682 4.05704 13.3756 4.07512 13.3756C4.09319 13.3756 4.10798 13.383 4.10798 13.392C4.10798 13.4011 4.13016 13.4085 4.15728 13.4085C4.18439 13.4085 4.20657 13.4158 4.20657 13.4249C4.20657 13.4339 4.22136 13.4413 4.23944 13.4413C4.25751 13.4413 4.2723 13.4487 4.2723 13.4577C4.2723 13.4668 4.28709 13.4742 4.30516 13.4742C4.32324 13.4742 4.33803 13.4816 4.33803 13.4906C4.33803 13.4996 4.36021 13.507 4.38732 13.507C4.41444 13.507 4.43662 13.5144 4.43662 13.5235C4.43662 13.5325 4.45141 13.5399 4.46948 13.5399C4.48756 13.5399 4.50235 13.5473 4.50235 13.5563C4.50235 13.5654 4.52453 13.5728 4.55164 13.5728C4.57876 13.5728 4.60094 13.5802 4.60094 13.5892C4.60094 13.5982 4.62312 13.6056 4.65023 13.6056C4.67735 13.6056 4.69953 13.613 4.69953 13.6221C4.69953 13.6311 4.72171 13.6385 4.74883 13.6385C4.77594 13.6385 4.79812 13.6459 4.79812 13.6549C4.79812 13.664 4.8203 13.6714 4.84742 13.6714C4.87453 13.6714 4.89671 13.6788 4.89671 13.6878C4.89671 13.6968 4.9189 13.7042 4.94601 13.7042C4.97312 13.7042 4.99531 13.7116 4.99531 13.7207C4.99531 13.7297 5.02488 13.7371 5.06103 13.7371C5.09718 13.7371 5.12676 13.7445 5.12676 13.7535C5.12676 13.7626 5.14894 13.77 5.17606 13.77C5.20317 13.77 5.22535 13.7773 5.22535 13.7864C5.22535 13.7954 5.25493 13.8028 5.29108 13.8028C5.32723 13.8028 5.35681 13.8102 5.35681 13.8192C5.35681 13.8283 5.39378 13.8357 5.43897 13.8357C5.48415 13.8357 5.52113 13.8431 5.52113 13.8521C5.52113 13.8611 5.5581 13.8685 5.60329 13.8685C5.64847 13.8685 5.68545 13.8759 5.68545 13.885C5.68545 13.894 5.72242 13.9014 5.76761 13.9014C5.81279 13.9014 5.84976 13.9088 5.84976 13.9178C5.84976 13.9272 5.89906 13.9343 5.96479 13.9343C6.03052 13.9343 6.07981 13.9413 6.07981 13.9507C6.07981 13.9604 6.14007 13.9671 6.2277 13.9671C6.31533 13.9671 6.37559 13.9738 6.37559 13.9836C6.37559 13.9942 6.59467 14 7 14C7.40533 14 7.62441 13.9942 7.62441 13.9836C7.62441 13.9738 7.68467 13.9671 7.7723 13.9671C7.85993 13.9671 7.92019 13.9604 7.92019 13.9507C7.92019 13.9416 7.96401 13.9343 8.01878 13.9343C8.07355 13.9343 8.11737 13.927 8.11737 13.9178C8.11737 13.9087 8.16119 13.9014 8.21596 13.9014C8.27073 13.9014 8.31455 13.8941 8.31455 13.885C8.31455 13.8759 8.35153 13.8685 8.39671 13.8685C8.4419 13.8685 8.47887 13.8611 8.47887 13.8521C8.47887 13.8431 8.50845 13.8357 8.5446 13.8357C8.58075 13.8357 8.61033 13.8283 8.61033 13.8192C8.61033 13.8102 8.63991 13.8028 8.67606 13.8028C8.71221 13.8028 8.74178 13.7954 8.74178 13.7864C8.74178 13.7773 8.77136 13.77 8.80751 13.77C8.84366 13.77 8.87324 13.7626 8.87324 13.7535C8.87324 13.7445 8.90282 13.7371 8.93897 13.7371C8.97512 13.7371 9.00469 13.7297 9.00469 13.7207C9.00469 13.7116 9.02688 13.7042 9.05399 13.7042C9.0811 13.7042 9.10329 13.6968 9.10329 13.6878C9.10329 13.6788 9.12547 13.6714 9.15258 13.6714C9.17969 13.6714 9.20188 13.664 9.20188 13.6549C9.20188 13.6459 9.22406 13.6385 9.25117 13.6385C9.27829 13.6385 9.30047 13.6311 9.30047 13.6221C9.30047 13.613 9.32265 13.6056 9.34976 13.6056C9.37688 13.6056 9.39906 13.5982 9.39906 13.5892C9.39906 13.5802 9.41385 13.5728 9.43192 13.5728C9.45 13.5728 9.46479 13.5654 9.46479 13.5563C9.46479 13.5473 9.48697 13.5399 9.51408 13.5399C9.5412 13.5399 9.56338 13.5325 9.56338 13.5235C9.56338 13.5144 9.57817 13.507 9.59624 13.507C9.61432 13.507 9.62911 13.4996 9.62911 13.4906C9.62911 13.4816 9.65129 13.4742 9.6784 13.4742C9.70552 13.4742 9.7277 13.4668 9.7277 13.4577C9.7277 13.4487 9.74249 13.4413 9.76056 13.4413C9.77864 13.4413 9.79343 13.4339 9.79343 13.4249C9.79343 13.4158 9.80822 13.4085 9.82629 13.4085C9.84437 13.4085 9.85915 13.4011 9.85915 13.392C9.85915 13.383 9.88134 13.3756 9.90845 13.3756C9.93556 13.3756 9.95775 13.3682 9.95775 13.3592C9.95775 13.3501 9.97253 13.3427 9.99061 13.3427C10.0087 13.3427 10.0235 13.3353 10.0235 13.3263C10.0235 13.3173 10.0383 13.3099 10.0563 13.3099C10.0744 13.3099 10.0892 13.3025 10.0892 13.2934C10.0892 13.2844 10.104 13.277 10.1221 13.277C10.1401 13.277 10.1549 13.2696 10.1549 13.2606C10.1549 13.2515 10.1697 13.2441 10.1878 13.2441C10.2059 13.2441 10.2207 13.2367 10.2207 13.2277C10.2207 13.2187 10.2354 13.2113 10.2535 13.2113C10.2716 13.2113 10.2864 13.2039 10.2864 13.1948C10.2864 13.1858 10.2995 13.1784 10.3156 13.1784C10.3317 13.1784 10.3555 13.1636 10.3685 13.1455C10.3866 13.1206 10.4111 13.1127 10.4708 13.1127C10.514 13.1127 10.5493 13.1201 10.5493 13.1291C10.5493 13.1381 10.5715 13.1455 10.5986 13.1455C10.6257 13.1455 10.6479 13.1529 10.6479 13.162C10.6479 13.171 10.6701 13.1784 10.6972 13.1784C10.7243 13.1784 10.7465 13.1858 10.7465 13.1948C10.7465 13.2039 10.7687 13.2113 10.7958 13.2113C10.8229 13.2113 10.8451 13.2187 10.8451 13.2277C10.8451 13.2367 10.8673 13.2441 10.8944 13.2441C10.9215 13.2441 10.9437 13.2515 10.9437 13.2606C10.9437 13.2696 10.9658 13.277 10.993 13.277C11.0201 13.277 11.0423 13.2844 11.0423 13.2934C11.0423 13.3025 11.0644 13.3099 11.0915 13.3099C11.1187 13.3099 11.1408 13.3173 11.1408 13.3263C11.1408 13.3353 11.163 13.3427 11.1901 13.3427C11.2173 13.3427 11.2394 13.3501 11.2394 13.3592C11.2394 13.3682 11.2616 13.3756 11.2887 13.3756C11.3158 13.3756 11.338 13.383 11.338 13.392C11.338 13.4011 11.3602 13.4085 11.3873 13.4085C11.4144 13.4085 11.4366 13.4158 11.4366 13.4249C11.4366 13.4339 11.4588 13.4413 11.4859 13.4413C11.513 13.4413 11.5352 13.4487 11.5352 13.4577C11.5352 13.4668 11.5574 13.4742 11.5845 13.4742C11.6116 13.4742 11.6338 13.4816 11.6338 13.4906C11.6338 13.4996 11.656 13.507 11.6831 13.507C11.7102 13.507 11.7324 13.5144 11.7324 13.5235C11.7324 13.5325 11.7546 13.5399 11.7817 13.5399C11.8088 13.5399 11.831 13.5473 11.831 13.5563C11.831 13.5654 11.8532 13.5728 11.8803 13.5728C11.9074 13.5728 11.9296 13.5802 11.9296 13.5892C11.9296 13.5982 11.9518 13.6056 11.9789 13.6056C12.006 13.6056 12.0282 13.613 12.0282 13.6221C12.0282 13.6311 12.0504 13.6385 12.0775 13.6385C12.1046 13.6385 12.1268 13.6459 12.1268 13.6549C12.1268 13.664 12.1489 13.6714 12.1761 13.6714C12.2032 13.6714 12.2254 13.6788 12.2254 13.6878C12.2254 13.6968 12.2475 13.7042 12.2746 13.7042C12.3018 13.7042 12.3239 13.7116 12.3239 13.7207C12.3239 13.7297 12.3461 13.7371 12.3732 13.7371C12.4004 13.7371 12.4225 13.7445 12.4225 13.7535C12.4225 13.7626 12.4447 13.77 12.4718 13.77C12.4989 13.77 12.5211 13.7773 12.5211 13.7864C12.5211 13.7954 12.5433 13.8028 12.5704 13.8028C12.5975 13.8028 12.6197 13.8102 12.6197 13.8192C12.6197 13.8283 12.6419 13.8357 12.669 13.8357C12.6961 13.8357 12.7183 13.8431 12.7183 13.8521C12.7183 13.8611 12.7405 13.8685 12.7676 13.8685C12.7947 13.8685 12.8169 13.8759 12.8169 13.885C12.8169 13.894 12.8391 13.9014 12.8662 13.9014C12.8933 13.9014 12.9155 13.9088 12.9155 13.9178C12.9155 13.9269 12.9377 13.9343 12.9648 13.9343C12.9919 13.9343 13.0141 13.9417 13.0141 13.9507C13.0141 13.9597 13.0363 13.9671 13.0634 13.9671C13.0905 13.9671 13.1127 13.9745 13.1127 13.9836C13.1127 13.9936 13.1894 14 13.3099 14C13.4304 14 13.507 13.9936 13.507 13.9836C13.507 13.9745 13.5292 13.9671 13.5563 13.9671C13.5835 13.9671 13.6056 13.9597 13.6056 13.9507C13.6056 13.9417 13.6174 13.9343 13.6319 13.9343C13.6464 13.9343 13.6789 13.9121 13.7042 13.885C13.7295 13.8579 13.7589 13.8357 13.7695 13.8357C13.7943 13.8357 13.8357 13.7943 13.8357 13.7695C13.8357 13.7589 13.8579 13.7295 13.885 13.7042C13.9121 13.6789 13.9343 13.6464 13.9343 13.6319C13.9343 13.6174 13.9417 13.6056 13.9507 13.6056C13.9597 13.6056 13.9671 13.5835 13.9671 13.5563C13.9671 13.5292 13.9745 13.507 13.9836 13.507C13.9936 13.507 14 13.4304 14 13.3099C14 13.1894 13.9936 13.1127 13.9836 13.1127C13.9745 13.1127 13.9671 13.0905 13.9671 13.0634C13.9671 13.0363 13.9597 13.0141 13.9507 13.0141C13.9417 13.0141 13.9343 12.9919 13.9343 12.9648C13.9343 12.9377 13.9269 12.9155 13.9178 12.9155C13.9088 12.9155 13.9014 12.8933 13.9014 12.8662C13.9014 12.8391 13.894 12.8169 13.885 12.8169C13.8759 12.8169 13.8685 12.7947 13.8685 12.7676C13.8685 12.7405 13.8611 12.7183 13.8521 12.7183C13.8431 12.7183 13.8357 12.6961 13.8357 12.669C13.8357 12.6419 13.8283 12.6197 13.8192 12.6197C13.8102 12.6197 13.8028 12.5975 13.8028 12.5704C13.8028 12.5433 13.7954 12.5211 13.7864 12.5211C13.7773 12.5211 13.77 12.4989 13.77 12.4718C13.77 12.4447 13.7626 12.4225 13.7535 12.4225C13.7445 12.4225 13.7371 12.4004 13.7371 12.3732C13.7371 12.3461 13.7297 12.3239 13.7207 12.3239C13.7116 12.3239 13.7042 12.3018 13.7042 12.2746C13.7042 12.2475 13.6968 12.2254 13.6878 12.2254C13.6788 12.2254 13.6714 12.2032 13.6714 12.1761C13.6714 12.1489 13.664 12.1268 13.6549 12.1268C13.6459 12.1268 13.6385 12.1046 13.6385 12.0775C13.6385 12.0504 13.6311 12.0282 13.6221 12.0282C13.613 12.0282 13.6056 12.006 13.6056 11.9789C13.6056 11.9518 13.5982 11.9296 13.5892 11.9296C13.5802 11.9296 13.5728 11.9074 13.5728 11.8803C13.5728 11.8532 13.5654 11.831 13.5563 11.831C13.5473 11.831 13.5399 11.8088 13.5399 11.7817C13.5399 11.7546 13.5325 11.7324 13.5235 11.7324C13.5144 11.7324 13.507 11.7102 13.507 11.6831C13.507 11.656 13.4996 11.6338 13.4906 11.6338C13.4816 11.6338 13.4742 11.6116 13.4742 11.5845C13.4742 11.5574 13.4668 11.5352 13.4577 11.5352C13.4487 11.5352 13.4413 11.513 13.4413 11.4859C13.4413 11.4588 13.4339 11.4366 13.4249 11.4366C13.4158 11.4366 13.4085 11.4144 13.4085 11.3873C13.4085 11.3602 13.4011 11.338 13.392 11.338C13.383 11.338 13.3756 11.3158 13.3756 11.2887C13.3756 11.2616 13.3682 11.2394 13.3592 11.2394C13.3501 11.2394 13.3427 11.2173 13.3427 11.1901C13.3427 11.163 13.3353 11.1408 13.3263 11.1408C13.3173 11.1408 13.3099 11.1187 13.3099 11.0915C13.3099 11.0644 13.3025 11.0423 13.2934 11.0423C13.2844 11.0423 13.277 11.0201 13.277 10.993C13.277 10.9658 13.2696 10.9437 13.2606 10.9437C13.2515 10.9437 13.2441 10.9215 13.2441 10.8944C13.2441 10.8673 13.2367 10.8451 13.2277 10.8451C13.2187 10.8451 13.2113 10.8229 13.2113 10.7958C13.2113 10.7687 13.2039 10.7465 13.1948 10.7465C13.1858 10.7465 13.1784 10.7243 13.1784 10.6972C13.1784 10.6701 13.171 10.6479 13.162 10.6479C13.1529 10.6479 13.1455 10.6257 13.1455 10.5986C13.1455 10.5715 13.1381 10.5493 13.1291 10.5493C13.1201 10.5493 13.1127 10.514 13.1127 10.4708C13.1127 10.4111 13.1206 10.3866 13.1455 10.3685C13.1636 10.3555 13.1784 10.3317 13.1784 10.3156C13.1784 10.2995 13.1858 10.2864 13.1948 10.2864C13.2039 10.2864 13.2113 10.2716 13.2113 10.2535C13.2113 10.2354 13.2187 10.2207 13.2277 10.2207C13.2367 10.2207 13.2441 10.2059 13.2441 10.1878C13.2441 10.1697 13.2515 10.1549 13.2606 10.1549C13.2696 10.1549 13.277 10.1401 13.277 10.1221C13.277 10.104 13.2844 10.0892 13.2934 10.0892C13.3025 10.0892 13.3099 10.0744 13.3099 10.0563C13.3099 10.0383 13.3173 10.0235 13.3263 10.0235C13.3353 10.0235 13.3427 10.0087 13.3427 9.99061C13.3427 9.97253 13.3501 9.95775 13.3592 9.95775C13.3682 9.95775 13.3756 9.93556 13.3756 9.90845C13.3756 9.88134 13.383 9.85915 13.392 9.85915C13.4011 9.85915 13.4085 9.84437 13.4085 9.82629C13.4085 9.80822 13.4158 9.79343 13.4249 9.79343C13.4339 9.79343 13.4413 9.77864 13.4413 9.76056C13.4413 9.74249 13.4487 9.7277 13.4577 9.7277C13.4668 9.7277 13.4742 9.71291 13.4742 9.69483C13.4742 9.67676 13.4816 9.66197 13.4906 9.66197C13.4996 9.66197 13.507 9.63979 13.507 9.61268C13.507 9.58556 13.5144 9.56338 13.5235 9.56338C13.5325 9.56338 13.5399 9.54859 13.5399 9.53052C13.5399 9.51244 13.5473 9.49765 13.5563 9.49765C13.5654 9.49765 13.5728 9.47547 13.5728 9.44836C13.5728 9.42124 13.5802 9.39906 13.5892 9.39906C13.5982 9.39906 13.6056 9.37688 13.6056 9.34976C13.6056 9.32265 13.613 9.30047 13.6221 9.30047C13.6311 9.30047 13.6385 9.27829 13.6385 9.25117C13.6385 9.22406 13.6459 9.20188 13.6549 9.20188C13.664 9.20188 13.6714 9.17969 13.6714 9.15258C13.6714 9.12547 13.6788 9.10329 13.6878 9.10329C13.6968 9.10329 13.7042 9.0811 13.7042 9.05399C13.7042 9.02688 13.7116 9.00469 13.7207 9.00469C13.7297 9.00469 13.7371 8.97512 13.7371 8.93897C13.7371 8.90282 13.7445 8.87324 13.7535 8.87324C13.7626 8.87324 13.77 8.85106 13.77 8.82394C13.77 8.79683 13.7773 8.77465 13.7864 8.77465C13.7954 8.77465 13.8028 8.74507 13.8028 8.70892C13.8028 8.67277 13.8102 8.64319 13.8192 8.64319C13.8283 8.64319 13.8357 8.60622 13.8357 8.56103C13.8357 8.51584 13.8431 8.47887 13.8521 8.47887C13.8611 8.47887 13.8685 8.4419 13.8685 8.39671C13.8685 8.35153 13.8759 8.31455 13.885 8.31455C13.894 8.31455 13.9014 8.27758 13.9014 8.23239C13.9014 8.18721 13.9088 8.15023 13.9178 8.15023C13.9272 8.15023 13.9343 8.10094 13.9343 8.03521C13.9343 7.96948 13.9413 7.92019 13.9507 7.92019C13.9603 7.92019 13.9671 7.86542 13.9671 7.78873C13.9671 7.71204 13.974 7.65728 13.9836 7.65728C13.9942 7.65728 14 7.42723 14 7C14 6.57277 13.9942 6.34272 13.9836 6.34272C13.9738 6.34272 13.9671 6.28247 13.9671 6.19484C13.9671 6.1072 13.9604 6.04695 13.9507 6.04695C13.9413 6.04695 13.9343 5.99765 13.9343 5.93192C13.9343 5.8662 13.9272 5.8169 13.9178 5.8169C13.9088 5.8169 13.9014 5.77993 13.9014 5.73474C13.9014 5.68955 13.894 5.65258 13.885 5.65258C13.8759 5.65258 13.8685 5.61561 13.8685 5.57042C13.8685 5.52523 13.8611 5.48826 13.8521 5.48826C13.8431 5.48826 13.8357 5.45868 13.8357 5.42253C13.8357 5.38638 13.8283 5.35681 13.8192 5.35681C13.8102 5.35681 13.8028 5.32723 13.8028 5.29108C13.8028 5.25493 13.7954 5.22535 13.7864 5.22535C13.7773 5.22535 13.77 5.19577 13.77 5.15962C13.77 5.12347 13.7626 5.0939 13.7535 5.0939C13.7445 5.0939 13.7371 5.07171 13.7371 5.0446C13.7371 5.01749 13.7297 4.99531 13.7207 4.99531C13.7116 4.99531 13.7042 4.97312 13.7042 4.94601C13.7042 4.9189 13.6968 4.89671 13.6878 4.89671C13.6788 4.89671 13.6714 4.86714 13.6714 4.83099C13.6714 4.79484 13.664 4.76526 13.6549 4.76526C13.6459 4.76526 13.6385 4.74307 13.6385 4.71596C13.6385 4.68885 13.6311 4.66667 13.6221 4.66667C13.613 4.66667 13.6056 4.65188 13.6056 4.6338C13.6056 4.61573 13.5982 4.60094 13.5892 4.60094C13.5802 4.60094 13.5728 4.57876 13.5728 4.55164C13.5728 4.52453 13.5654 4.50235 13.5563 4.50235C13.5473 4.50235 13.5399 4.48016 13.5399 4.45305C13.5399 4.42594 13.5325 4.40376 13.5235 4.40376C13.5144 4.40376 13.507 4.38897 13.507 4.37089C13.507 4.35282 13.4996 4.33803 13.4906 4.33803C13.4816 4.33803 13.4742 4.32324 13.4742 4.30516C13.4742 4.28709 13.4668 4.2723 13.4577 4.2723C13.4487 4.2723 13.4413 4.25012 13.4413 4.223C13.4413 4.19589 13.4339 4.17371 13.4249 4.17371C13.4158 4.17371 13.4085 4.15892 13.4085 4.14084C13.4085 4.12277 13.4011 4.10798 13.392 4.10798C13.383 4.10798 13.3756 4.09319 13.3756 4.07512C13.3756 4.05704 13.3682 4.04225 13.3592 4.04225C13.3501 4.04225 13.3427 4.02746 13.3427 4.00939C13.3427 3.99131 13.3353 3.97653 13.3263 3.97653C13.3173 3.97653 13.3099 3.96174 13.3099 3.94366C13.3099 3.92559 13.3025 3.9108 13.2934 3.9108C13.2844 3.9108 13.277 3.89601 13.277 3.87793C13.277 3.85986 13.2696 3.84507 13.2606 3.84507C13.2515 3.84507 13.2441 3.83028 13.2441 3.81221C13.2441 3.79413 13.2367 3.77934 13.2277 3.77934C13.2187 3.77934 13.2113 3.76455 13.2113 3.74648C13.2113 3.7284 13.2039 3.71361 13.1948 3.71361C13.1858 3.71361 13.1784 3.69883 13.1784 3.68075C13.1784 3.66268 13.171 3.64789 13.162 3.64789C13.1529 3.64789 13.1455 3.6331 13.1455 3.61502C13.1455 3.59695 13.1381 3.58216 13.1291 3.58216C13.1201 3.58216 13.1127 3.569 13.1127 3.55293C13.1127 3.53684 13.0979 3.51303 13.0798 3.5C13.0617 3.48697 13.0469 3.46316 13.0469 3.44707C13.0469 3.431 13.0396 3.41784 13.0305 3.41784C13.0215 3.41784 13.0141 3.40468 13.0141 3.38861C13.0141 3.37252 12.9993 3.34871 12.9812 3.33568C12.9631 3.32265 12.9484 3.29884 12.9484 3.28275C12.9484 3.26668 12.941 3.25352 12.9319 3.25352C12.9229 3.25352 12.9155 3.24036 12.9155 3.22429C12.9155 3.2082 12.9007 3.18439 12.8826 3.17136C12.8646 3.15833 12.8498 3.13615 12.8498 3.12207C12.8498 3.10798 12.835 3.0858 12.8169 3.07277C12.7988 3.05974 12.784 3.03889 12.784 3.02643C12.784 3.01399 12.7619 2.98307 12.7347 2.95775C12.7076 2.93242 12.6854 2.90285 12.6854 2.89202C12.6854 2.88119 12.6633 2.85161 12.6361 2.82629C12.609 2.80097 12.5869 2.77139 12.5869 2.76056C12.5869 2.74973 12.5647 2.72016 12.5376 2.69484C12.5104 2.66951 12.4883 2.64018 12.4883 2.62967C12.4883 2.61915 12.4513 2.57454 12.4061 2.53052C12.3609 2.4865 12.3239 2.44257 12.3239 2.43289C12.3239 2.40992 11.5901 1.67606 11.5671 1.67606C11.5574 1.67606 11.5135 1.63908 11.4695 1.5939C11.4255 1.54871 11.3808 1.51174 11.3703 1.51174C11.3598 1.51174 11.3305 1.48955 11.3052 1.46244C11.2798 1.43533 11.2503 1.41315 11.2394 1.41315C11.2286 1.41315 11.199 1.39096 11.1737 1.36385C11.1484 1.33674 11.1188 1.31455 11.108 1.31455C11.0972 1.31455 11.0676 1.29237 11.0423 1.26526C11.0169 1.23815 10.986 1.21596 10.9736 1.21596C10.9611 1.21596 10.9403 1.20117 10.9272 1.1831C10.9142 1.16502 10.892 1.15023 10.8779 1.15023C10.8639 1.15023 10.8417 1.13545 10.8286 1.11737C10.8156 1.0993 10.7918 1.08451 10.7757 1.08451C10.7596 1.08451 10.7465 1.07711 10.7465 1.06808C10.7465 1.05904 10.7333 1.05164 10.7172 1.05164C10.7012 1.05164 10.6773 1.03685 10.6643 1.01878C10.6513 1.0007 10.6275 0.985915 10.6114 0.985915C10.5953 0.985915 10.5822 0.978521 10.5822 0.969483C10.5822 0.960446 10.569 0.953052 10.5529 0.953052C10.5368 0.953052 10.513 0.938263 10.5 0.920188C10.487 0.902113 10.4632 0.887324 10.4471 0.887324C10.431 0.887324 10.4178 0.87993 10.4178 0.870892C10.4178 0.861854 10.4031 0.85446 10.385 0.85446C10.3669 0.85446 10.3521 0.847066 10.3521 0.838028C10.3521 0.828991 10.3373 0.821596 10.3192 0.821596C10.3012 0.821596 10.2864 0.814202 10.2864 0.805164C10.2864 0.796127 10.2716 0.788732 10.2535 0.788732C10.2354 0.788732 10.2207 0.781338 10.2207 0.7723C10.2207 0.763263 10.2059 0.755868 10.1878 0.755868C10.1697 0.755868 10.1549 0.748474 10.1549 0.739437C10.1549 0.730399 10.1401 0.723005 10.1221 0.723005C10.104 0.723005 10.0892 0.71561 10.0892 0.706573C10.0892 0.697535 10.0744 0.690141 10.0563 0.690141C10.0383 0.690141 10.0235 0.682746 10.0235 0.673709C10.0235 0.664671 10.0087 0.657277 9.99061 0.657277C9.97253 0.657277 9.95775 0.649883 9.95775 0.640845C9.95775 0.631807 9.94296 0.624413 9.92488 0.624413C9.90681 0.624413 9.89202 0.617019 9.89202 0.607981C9.89202 0.598944 9.87723 0.591549 9.85915 0.591549C9.84108 0.591549 9.82629 0.584155 9.82629 0.575117C9.82629 0.56608 9.80411 0.558685 9.77699 0.558685C9.74988 0.558685 9.7277 0.551291 9.7277 0.542253C9.7277 0.533216 9.71291 0.525822 9.69483 0.525822C9.67676 0.525822 9.66197 0.518427 9.66197 0.50939C9.66197 0.500352 9.63979 0.492958 9.61268 0.492958C9.58556 0.492958 9.56338 0.485563 9.56338 0.476526C9.56338 0.467488 9.54859 0.460094 9.53052 0.460094C9.51244 0.460094 9.49765 0.4527 9.49765 0.443662C9.49765 0.434624 9.47547 0.42723 9.44836 0.42723C9.42124 0.42723 9.39906 0.419836 9.39906 0.410798C9.39906 0.401761 9.38427 0.394366 9.3662 0.394366C9.34812 0.394366 9.33333 0.386972 9.33333 0.377934C9.33333 0.368897 9.30376 0.361502 9.2676 0.361502C9.23145 0.361502 9.20188 0.354108 9.20188 0.34507C9.20188 0.336033 9.17969 0.328638 9.15258 0.328638C9.12547 0.328638 9.10329 0.321244 9.10329 0.312207C9.10329 0.303169 9.0811 0.295775 9.05399 0.295775C9.02688 0.295775 9.00469 0.28838 9.00469 0.279343C9.00469 0.270305 8.98251 0.262911 8.9554 0.262911C8.92829 0.262911 8.9061 0.255516 8.9061 0.246479C8.9061 0.237441 8.87652 0.230047 8.84037 0.230047C8.80422 0.230047 8.77465 0.222653 8.77465 0.213615C8.77465 0.204577 8.74507 0.197183 8.70892 0.197183C8.67277 0.197183 8.64319 0.189789 8.64319 0.180751C8.64319 0.171714 8.61361 0.164319 8.57746 0.164319C8.54131 0.164319 8.51174 0.156925 8.51174 0.147887C8.51174 0.13885 8.47476 0.131455 8.42958 0.131455C8.38439 0.131455 8.34742 0.124061 8.34742 0.115023C8.34742 0.105887 8.30359 0.0985915 8.24883 0.0985915C8.19406 0.0985915 8.15023 0.0912958 8.15023 0.0821596C8.15023 0.072777 8.10094 0.0657277 8.03521 0.0657277C7.96948 0.0657277 7.92019 0.0586784 7.92019 0.0492958C7.92019 0.0395516 7.85993 0.0328638 7.7723 0.0328638C7.68467 0.0328638 7.62441 0.0261761 7.62441 0.0164319C7.62441 0.00576761 7.40533 0 7 0C6.59467 0 6.37559 0.00576761 6.37559 0.0164319ZM7.16432 1.36385C7.16432 1.37402 7.25195 1.38028 7.39437 1.38028C7.53678 1.38028 7.62441 1.38654 7.62441 1.39671C7.62441 1.4061 7.67371 1.41315 7.73944 1.41315C7.80516 1.41315 7.85446 1.42019 7.85446 1.42958C7.85446 1.43871 7.89828 1.44601 7.95305 1.44601C8.00782 1.44601 8.05164 1.45331 8.05164 1.46244C8.05164 1.47148 8.08861 1.47887 8.1338 1.47887C8.17899 1.47887 8.21596 1.48627 8.21596 1.49531C8.21596 1.50434 8.24554 1.51174 8.28169 1.51174C8.31784 1.51174 8.34742 1.51913 8.34742 1.52817C8.34742 1.53721 8.377 1.5446 8.41315 1.5446C8.4493 1.5446 8.47887 1.552 8.47887 1.56103C8.47887 1.57007 8.50106 1.57746 8.52817 1.57746C8.55528 1.57746 8.57746 1.58486 8.57746 1.5939C8.57746 1.60293 8.60704 1.61033 8.64319 1.61033C8.67934 1.61033 8.70892 1.61772 8.70892 1.62676C8.70892 1.6358 8.7311 1.64319 8.75822 1.64319C8.78533 1.64319 8.80751 1.65059 8.80751 1.65962C8.80751 1.66866 8.8223 1.67606 8.84037 1.67606C8.85845 1.67606 8.87324 1.68345 8.87324 1.69249C8.87324 1.70153 8.89542 1.70892 8.92253 1.70892C8.94965 1.70892 8.97183 1.71631 8.97183 1.72535C8.97183 1.73439 8.99401 1.74178 9.02113 1.74178C9.04824 1.74178 9.07042 1.74918 9.07042 1.75822C9.07042 1.76725 9.08521 1.77465 9.10329 1.77465C9.12136 1.77465 9.13615 1.78204 9.13615 1.79108C9.13615 1.80012 9.15094 1.80751 9.16901 1.80751C9.18709 1.80751 9.20188 1.81491 9.20188 1.82394C9.20188 1.83298 9.22406 1.84038 9.25117 1.84038C9.27829 1.84038 9.30047 1.84777 9.30047 1.85681C9.30047 1.86584 9.31526 1.87324 9.33333 1.87324C9.35141 1.87324 9.3662 1.88063 9.3662 1.88967C9.3662 1.89871 9.38099 1.9061 9.39906 1.9061C9.41714 1.9061 9.43192 1.9135 9.43192 1.92254C9.43192 1.93157 9.44671 1.93897 9.46479 1.93897C9.48286 1.93897 9.49765 1.94636 9.49765 1.9554C9.49765 1.96444 9.51244 1.97183 9.53052 1.97183C9.54859 1.97183 9.56338 1.97923 9.56338 1.98826C9.56338 1.9973 9.57817 2.00469 9.59624 2.00469C9.61432 2.00469 9.62911 2.01209 9.62911 2.02113C9.62911 2.03016 9.6439 2.03756 9.66197 2.03756C9.68005 2.03756 9.69483 2.04495 9.69483 2.05399C9.69483 2.06303 9.708 2.07042 9.72407 2.07042C9.74015 2.07042 9.76396 2.08521 9.77699 2.10329C9.79003 2.12136 9.81384 2.13615 9.82992 2.13615C9.84599 2.13615 9.85915 2.14354 9.85915 2.15258C9.85915 2.16162 9.87232 2.16901 9.88839 2.16901C9.90447 2.16901 9.92828 2.1838 9.94131 2.20188C9.95434 2.21995 9.97653 2.23474 9.99061 2.23474C10.0047 2.23474 10.0269 2.24953 10.0399 2.26761C10.0529 2.28568 10.0751 2.30047 10.0892 2.30047C10.1033 2.30047 10.1255 2.31526 10.1385 2.33333C10.1515 2.35141 10.1737 2.3662 10.1878 2.3662C10.2019 2.3662 10.2241 2.38099 10.2371 2.39906C10.2501 2.41714 10.271 2.43192 10.2834 2.43192C10.2959 2.43192 10.3268 2.45411 10.3521 2.48122C10.3774 2.50833 10.4069 2.53052 10.4175 2.53052C10.4281 2.53052 10.4653 2.56009 10.5 2.59624C10.5347 2.63239 10.5712 2.66197 10.581 2.66197C10.6042 2.66197 11.3052 3.36289 11.3052 3.38618C11.3052 3.39597 11.3347 3.4324 11.3709 3.46714C11.407 3.50187 11.4366 3.53899 11.4366 3.54962C11.4366 3.56027 11.4588 3.5897 11.4859 3.61502C11.513 3.64034 11.5352 3.67127 11.5352 3.68371C11.5352 3.69616 11.55 3.71702 11.5681 3.73005C11.5861 3.74308 11.6009 3.76526 11.6009 3.77934C11.6009 3.79342 11.6157 3.81561 11.6338 3.82864C11.6519 3.84167 11.6667 3.86385 11.6667 3.87793C11.6667 3.89202 11.6815 3.9142 11.6995 3.92723C11.7176 3.94026 11.7324 3.96244 11.7324 3.97653C11.7324 3.99061 11.7472 4.01279 11.7653 4.02582C11.7833 4.03885 11.7981 4.06266 11.7981 4.07875C11.7981 4.09482 11.8055 4.10798 11.8146 4.10798C11.8236 4.10798 11.831 4.12114 11.831 4.13721C11.831 4.1533 11.8458 4.17711 11.8638 4.19014C11.8819 4.20317 11.8967 4.22698 11.8967 4.24307C11.8967 4.25914 11.9041 4.2723 11.9131 4.2723C11.9222 4.2723 11.9296 4.28709 11.9296 4.30516C11.9296 4.32324 11.937 4.33803 11.946 4.33803C11.955 4.33803 11.9624 4.35282 11.9624 4.37089C11.9624 4.38897 11.9698 4.40376 11.9789 4.40376C11.9879 4.40376 11.9953 4.41854 11.9953 4.43662C11.9953 4.45469 12.0027 4.46948 12.0117 4.46948C12.0208 4.46948 12.0282 4.48427 12.0282 4.50235C12.0282 4.52042 12.0356 4.53521 12.0446 4.53521C12.0536 4.53521 12.061 4.55 12.061 4.56807C12.061 4.58615 12.0684 4.60094 12.0775 4.60094C12.0865 4.60094 12.0939 4.61573 12.0939 4.6338C12.0939 4.65188 12.1013 4.66667 12.1103 4.66667C12.1194 4.66667 12.1268 4.68885 12.1268 4.71596C12.1268 4.74307 12.1342 4.76526 12.1432 4.76526C12.1522 4.76526 12.1596 4.78005 12.1596 4.79812C12.1596 4.8162 12.167 4.83099 12.1761 4.83099C12.1851 4.83099 12.1925 4.84577 12.1925 4.86385C12.1925 4.88192 12.1999 4.89671 12.2089 4.89671C12.218 4.89671 12.2254 4.9189 12.2254 4.94601C12.2254 4.97312 12.2327 4.99531 12.2418 4.99531C12.2508 4.99531 12.2582 5.01009 12.2582 5.02817C12.2582 5.04624 12.2656 5.06103 12.2746 5.06103C12.2837 5.06103 12.2911 5.08322 12.2911 5.11033C12.2911 5.13744 12.2985 5.15962 12.3075 5.15962C12.3165 5.15962 12.3239 5.18181 12.3239 5.20892C12.3239 5.23603 12.3313 5.25822 12.3404 5.25822C12.3494 5.25822 12.3568 5.28779 12.3568 5.32394C12.3568 5.36009 12.3642 5.38967 12.3732 5.38967C12.3823 5.38967 12.3897 5.41185 12.3897 5.43897C12.3897 5.46608 12.3971 5.48826 12.4061 5.48826C12.4151 5.48826 12.4225 5.51784 12.4225 5.55399C12.4225 5.59014 12.4299 5.61972 12.439 5.61972C12.448 5.61972 12.4554 5.6493 12.4554 5.68545C12.4554 5.7216 12.4628 5.75117 12.4718 5.75117C12.4809 5.75117 12.4883 5.78815 12.4883 5.83333C12.4883 5.87852 12.4957 5.91549 12.5047 5.91549C12.5138 5.91549 12.5211 5.95932 12.5211 6.01408C12.5211 6.06885 12.5284 6.11268 12.5376 6.11268C12.5469 6.11268 12.554 6.16197 12.554 6.2277C12.554 6.29343 12.561 6.34272 12.5704 6.34272C12.5805 6.34272 12.5869 6.42488 12.5869 6.55634C12.5869 6.68779 12.5932 6.76995 12.6033 6.76995C12.6133 6.76995 12.6197 6.84664 12.6197 6.96714C12.6197 7.08763 12.6133 7.16432 12.6033 7.16432C12.5931 7.16432 12.5869 7.25195 12.5869 7.39437C12.5869 7.53678 12.5806 7.62441 12.5704 7.62441C12.561 7.62441 12.554 7.67371 12.554 7.73944C12.554 7.80516 12.5469 7.85446 12.5376 7.85446C12.5284 7.85446 12.5211 7.89828 12.5211 7.95305C12.5211 8.00782 12.5138 8.05164 12.5047 8.05164C12.4957 8.05164 12.4883 8.08861 12.4883 8.1338C12.4883 8.17899 12.4809 8.21596 12.4718 8.21596C12.4628 8.21596 12.4554 8.24554 12.4554 8.28169C12.4554 8.31784 12.448 8.34742 12.439 8.34742C12.4299 8.34742 12.4225 8.377 12.4225 8.41315C12.4225 8.4493 12.4151 8.47887 12.4061 8.47887C12.3971 8.47887 12.3897 8.50106 12.3897 8.52817C12.3897 8.55528 12.3823 8.57746 12.3732 8.57746C12.3642 8.57746 12.3568 8.60704 12.3568 8.64319C12.3568 8.67934 12.3494 8.70892 12.3404 8.70892C12.3313 8.70892 12.3239 8.7311 12.3239 8.75822C12.3239 8.78533 12.3165 8.80751 12.3075 8.80751C12.2985 8.80751 12.2911 8.8223 12.2911 8.84037C12.2911 8.85845 12.2837 8.87324 12.2746 8.87324C12.2656 8.87324 12.2582 8.89542 12.2582 8.92253C12.2582 8.94965 12.2508 8.97183 12.2418 8.97183C12.2327 8.97183 12.2254 8.99401 12.2254 9.02113C12.2254 9.04824 12.218 9.07042 12.2089 9.07042C12.1999 9.07042 12.1925 9.08521 12.1925 9.10329C12.1925 9.12136 12.1851 9.13615 12.1761 9.13615C12.167 9.13615 12.1596 9.15833 12.1596 9.18545C12.1596 9.21256 12.1522 9.23474 12.1432 9.23474C12.1342 9.23474 12.1268 9.24953 12.1268 9.2676C12.1268 9.28568 12.1194 9.30047 12.1103 9.30047C12.1013 9.30047 12.0939 9.31526 12.0939 9.33333C12.0939 9.35141 12.0865 9.3662 12.0775 9.3662C12.0684 9.3662 12.061 9.38099 12.061 9.39906C12.061 9.41714 12.0536 9.43192 12.0446 9.43192C12.0356 9.43192 12.0282 9.44671 12.0282 9.46479C12.0282 9.48286 12.0208 9.49765 12.0117 9.49765C12.0027 9.49765 11.9953 9.51244 11.9953 9.53052C11.9953 9.54859 11.9879 9.56338 11.9789 9.56338C11.9698 9.56338 11.9624 9.57817 11.9624 9.59624C11.9624 9.61432 11.955 9.62911 11.946 9.62911C11.937 9.62911 11.9296 9.6439 11.9296 9.66197C11.9296 9.68005 11.9222 9.69483 11.9131 9.69483C11.9041 9.69483 11.8967 9.708 11.8967 9.72407C11.8967 9.74015 11.8819 9.76396 11.8638 9.77699C11.8458 9.79003 11.831 9.81384 11.831 9.82992C11.831 9.84599 11.8236 9.85915 11.8146 9.85915C11.8055 9.85915 11.7981 9.87232 11.7981 9.88839C11.7981 9.90447 11.7833 9.92828 11.7653 9.94131C11.7472 9.95434 11.7324 9.97815 11.7324 9.99424C11.7324 10.0103 11.725 10.0235 11.716 10.0235C11.7069 10.0235 11.6995 10.0383 11.6995 10.0563C11.6995 10.0744 11.6921 10.0892 11.6831 10.0892C11.6741 10.0892 11.6667 10.1114 11.6667 10.1385C11.6667 10.1656 11.6593 10.1878 11.6502 10.1878C11.6403 10.1878 11.6338 10.259 11.6338 10.3685C11.6338 10.4781 11.6403 10.5493 11.6502 10.5493C11.6593 10.5493 11.6667 10.5715 11.6667 10.5986C11.6667 10.6257 11.6741 10.6479 11.6831 10.6479C11.6921 10.6479 11.6995 10.6701 11.6995 10.6972C11.6995 10.7243 11.7069 10.7465 11.716 10.7465C11.725 10.7465 11.7324 10.7687 11.7324 10.7958C11.7324 10.8229 11.7398 10.8451 11.7488 10.8451C11.7579 10.8451 11.7653 10.8673 11.7653 10.8944C11.7653 10.9215 11.7727 10.9437 11.7817 10.9437C11.7907 10.9437 11.7981 10.9658 11.7981 10.993C11.7981 11.0201 11.8055 11.0423 11.8146 11.0423C11.8236 11.0423 11.831 11.0644 11.831 11.0915C11.831 11.1187 11.8384 11.1408 11.8474 11.1408C11.8565 11.1408 11.8638 11.163 11.8638 11.1901C11.8638 11.2173 11.8712 11.2394 11.8803 11.2394C11.8893 11.2394 11.8967 11.2616 11.8967 11.2887C11.8967 11.3158 11.9041 11.338 11.9131 11.338C11.9222 11.338 11.9296 11.3602 11.9296 11.3873C11.9296 11.4144 11.937 11.4366 11.946 11.4366C11.955 11.4366 11.9624 11.4588 11.9624 11.4859C11.9624 11.513 11.9698 11.5352 11.9789 11.5352C11.9879 11.5352 11.9953 11.5574 11.9953 11.5845C11.9953 11.6116 12.0027 11.6338 12.0117 11.6338C12.0208 11.6338 12.0282 11.656 12.0282 11.6831C12.0282 11.7102 12.0356 11.7324 12.0446 11.7324C12.0536 11.7324 12.061 11.7546 12.061 11.7817C12.061 11.8088 12.0684 11.831 12.0775 11.831C12.0865 11.831 12.0939 11.8532 12.0939 11.8803C12.0939 11.9074 12.1013 11.9296 12.1103 11.9296C12.1194 11.9296 12.1268 11.9518 12.1268 11.9789C12.1268 12.006 12.1342 12.0282 12.1432 12.0282C12.1522 12.0282 12.1596 12.0504 12.1596 12.0775C12.1596 12.1046 12.167 12.1268 12.1761 12.1268C12.1851 12.1268 12.1925 12.1415 12.1925 12.1596C12.1925 12.1815 12.1815 12.1925 12.1596 12.1925C12.1415 12.1925 12.1268 12.1851 12.1268 12.1761C12.1268 12.167 12.1046 12.1596 12.0775 12.1596C12.0504 12.1596 12.0282 12.1522 12.0282 12.1432C12.0282 12.1342 12.006 12.1268 11.9789 12.1268C11.9518 12.1268 11.9296 12.1194 11.9296 12.1103C11.9296 12.1013 11.9074 12.0939 11.8803 12.0939C11.8532 12.0939 11.831 12.0865 11.831 12.0775C11.831 12.0684 11.8088 12.061 11.7817 12.061C11.7546 12.061 11.7324 12.0536 11.7324 12.0446C11.7324 12.0356 11.7102 12.0282 11.6831 12.0282C11.656 12.0282 11.6338 12.0208 11.6338 12.0117C11.6338 12.0027 11.6116 11.9953 11.5845 11.9953C11.5574 11.9953 11.5352 11.9879 11.5352 11.9789C11.5352 11.9698 11.513 11.9624 11.4859 11.9624C11.4588 11.9624 11.4366 11.955 11.4366 11.946C11.4366 11.937 11.4144 11.9296 11.3873 11.9296C11.3602 11.9296 11.338 11.9222 11.338 11.9131C11.338 11.9041 11.3158 11.8967 11.2887 11.8967C11.2616 11.8967 11.2394 11.8893 11.2394 11.8803C11.2394 11.8712 11.2173 11.8638 11.1901 11.8638C11.163 11.8638 11.1408 11.8565 11.1408 11.8474C11.1408 11.8384 11.1187 11.831 11.0915 11.831C11.0644 11.831 11.0423 11.8236 11.0423 11.8146C11.0423 11.8055 11.0201 11.7981 10.993 11.7981C10.9658 11.7981 10.9437 11.7907 10.9437 11.7817C10.9437 11.7727 10.9215 11.7653 10.8944 11.7653C10.8673 11.7653 10.8451 11.7579 10.8451 11.7488C10.8451 11.7398 10.8229 11.7324 10.7958 11.7324C10.7687 11.7324 10.7465 11.725 10.7465 11.716C10.7465 11.7069 10.7243 11.6995 10.6972 11.6995C10.6701 11.6995 10.6479 11.6921 10.6479 11.6831C10.6479 11.6741 10.6257 11.6667 10.5986 11.6667C10.5715 11.6667 10.5493 11.6593 10.5493 11.6502C10.5493 11.6403 10.4781 11.6338 10.3685 11.6338C10.259 11.6338 10.1878 11.6403 10.1878 11.6502C10.1878 11.6593 10.1656 11.6667 10.1385 11.6667C10.1114 11.6667 10.0892 11.6741 10.0892 11.6831C10.0892 11.6921 10.0744 11.6995 10.0563 11.6995C10.0383 11.6995 10.0235 11.7069 10.0235 11.716C10.0235 11.725 10.0103 11.7324 9.99424 11.7324C9.97815 11.7324 9.95434 11.7472 9.94131 11.7653C9.92828 11.7833 9.90447 11.7981 9.88839 11.7981C9.87232 11.7981 9.85915 11.8055 9.85915 11.8146C9.85915 11.8236 9.84599 11.831 9.82992 11.831C9.81384 11.831 9.79003 11.8458 9.77699 11.8638C9.76396 11.8819 9.74015 11.8967 9.72407 11.8967C9.708 11.8967 9.69483 11.9041 9.69483 11.9131C9.69483 11.9222 9.68005 11.9296 9.66197 11.9296C9.6439 11.9296 9.62911 11.937 9.62911 11.946C9.62911 11.955 9.61432 11.9624 9.59624 11.9624C9.57817 11.9624 9.56338 11.9698 9.56338 11.9789C9.56338 11.9879 9.54859 11.9953 9.53052 11.9953C9.51244 11.9953 9.49765 12.0027 9.49765 12.0117C9.49765 12.0208 9.48286 12.0282 9.46479 12.0282C9.44671 12.0282 9.43192 12.0356 9.43192 12.0446C9.43192 12.0536 9.41714 12.061 9.39906 12.061C9.38099 12.061 9.3662 12.0684 9.3662 12.0775C9.3662 12.0865 9.35141 12.0939 9.33333 12.0939C9.31526 12.0939 9.30047 12.1013 9.30047 12.1103C9.30047 12.1194 9.28568 12.1268 9.2676 12.1268C9.24953 12.1268 9.23474 12.1342 9.23474 12.1432C9.23474 12.1522 9.21256 12.1596 9.18545 12.1596C9.15833 12.1596 9.13615 12.167 9.13615 12.1761C9.13615 12.1851 9.12136 12.1925 9.10329 12.1925C9.08521 12.1925 9.07042 12.1999 9.07042 12.2089C9.07042 12.218 9.04824 12.2254 9.02113 12.2254C8.99401 12.2254 8.97183 12.2327 8.97183 12.2418C8.97183 12.2508 8.94965 12.2582 8.92253 12.2582C8.89542 12.2582 8.87324 12.2656 8.87324 12.2746C8.87324 12.2837 8.85845 12.2911 8.84037 12.2911C8.8223 12.2911 8.80751 12.2985 8.80751 12.3075C8.80751 12.3165 8.78533 12.3239 8.75822 12.3239C8.7311 12.3239 8.70892 12.3313 8.70892 12.3404C8.70892 12.3494 8.67934 12.3568 8.64319 12.3568C8.60704 12.3568 8.57746 12.3642 8.57746 12.3732C8.57746 12.3823 8.55528 12.3897 8.52817 12.3897C8.50106 12.3897 8.47887 12.3971 8.47887 12.4061C8.47887 12.4151 8.4493 12.4225 8.41315 12.4225C8.377 12.4225 8.34742 12.4299 8.34742 12.439C8.34742 12.448 8.31784 12.4554 8.28169 12.4554C8.24554 12.4554 8.21596 12.4628 8.21596 12.4718C8.21596 12.4809 8.17899 12.4883 8.1338 12.4883C8.08861 12.4883 8.05164 12.4957 8.05164 12.5047C8.05164 12.5138 8.00782 12.5211 7.95305 12.5211C7.89828 12.5211 7.85446 12.5284 7.85446 12.5376C7.85446 12.5469 7.80516 12.554 7.73944 12.554C7.67371 12.554 7.62441 12.561 7.62441 12.5704C7.62441 12.5806 7.53129 12.5869 7.37793 12.5869C7.22457 12.5869 7.13145 12.5931 7.13145 12.6033C7.13145 12.6131 7.06573 12.6197 6.96714 12.6197C6.86854 12.6197 6.80282 12.6131 6.80282 12.6033C6.80282 12.5931 6.71519 12.5869 6.57277 12.5869C6.43035 12.5869 6.34272 12.5806 6.34272 12.5704C6.34272 12.561 6.29343 12.554 6.2277 12.554C6.16197 12.554 6.11268 12.5469 6.11268 12.5376C6.11268 12.5284 6.06885 12.5211 6.01408 12.5211C5.95932 12.5211 5.91549 12.5138 5.91549 12.5047C5.91549 12.4957 5.87852 12.4883 5.83333 12.4883C5.78815 12.4883 5.75117 12.4809 5.75117 12.4718C5.75117 12.4628 5.7216 12.4554 5.68545 12.4554C5.6493 12.4554 5.61972 12.448 5.61972 12.439C5.61972 12.4299 5.59754 12.4225 5.57042 12.4225C5.54331 12.4225 5.52113 12.4151 5.52113 12.4061C5.52113 12.3971 5.49155 12.3897 5.4554 12.3897C5.41925 12.3897 5.38967 12.3823 5.38967 12.3732C5.38967 12.3642 5.36749 12.3568 5.34038 12.3568C5.31326 12.3568 5.29108 12.3494 5.29108 12.3404C5.29108 12.3313 5.2689 12.3239 5.24178 12.3239C5.21467 12.3239 5.19249 12.3165 5.19249 12.3075C5.19249 12.2985 5.1703 12.2911 5.14319 12.2911C5.11608 12.2911 5.0939 12.2837 5.0939 12.2746C5.0939 12.2656 5.07171 12.2582 5.0446 12.2582C5.01749 12.2582 4.99531 12.2508 4.99531 12.2418C4.99531 12.2327 4.97312 12.2254 4.94601 12.2254C4.9189 12.2254 4.89671 12.218 4.89671 12.2089C4.89671 12.1999 4.88192 12.1925 4.86385 12.1925C4.84577 12.1925 4.83099 12.1851 4.83099 12.1761C4.83099 12.167 4.8162 12.1596 4.79812 12.1596C4.78005 12.1596 4.76526 12.1522 4.76526 12.1432C4.76526 12.1342 4.74307 12.1268 4.71596 12.1268C4.68885 12.1268 4.66667 12.1194 4.66667 12.1103C4.66667 12.1013 4.65188 12.0939 4.6338 12.0939C4.61573 12.0939 4.60094 12.0865 4.60094 12.0775C4.60094 12.0684 4.58615 12.061 4.56807 12.061C4.55 12.061 4.53521 12.0536 4.53521 12.0446C4.53521 12.0356 4.52042 12.0282 4.50235 12.0282C4.48427 12.0282 4.46948 12.0208 4.46948 12.0117C4.46948 12.0027 4.45469 11.9953 4.43662 11.9953C4.41854 11.9953 4.40376 11.9879 4.40376 11.9789C4.40376 11.9698 4.38897 11.9624 4.37089 11.9624C4.35282 11.9624 4.33803 11.955 4.33803 11.946C4.33803 11.937 4.32324 11.9296 4.30516 11.9296C4.28709 11.9296 4.2723 11.9222 4.2723 11.9131C4.2723 11.9041 4.25914 11.8967 4.24307 11.8967C4.22698 11.8967 4.20317 11.8819 4.19014 11.8638C4.17711 11.8458 4.1533 11.831 4.13721 11.831C4.12114 11.831 4.10798 11.8236 4.10798 11.8146C4.10798 11.8055 4.09482 11.7981 4.07875 11.7981C4.06266 11.7981 4.03885 11.7833 4.02582 11.7653C4.01279 11.7472 3.99061 11.7324 3.97653 11.7324C3.96244 11.7324 3.94026 11.7176 3.92723 11.6995C3.9142 11.6815 3.89202 11.6667 3.87793 11.6667C3.86385 11.6667 3.84167 11.6519 3.82864 11.6338C3.81561 11.6157 3.79476 11.6009 3.7823 11.6009C3.76986 11.6009 3.73894 11.5788 3.71361 11.5516C3.68829 11.5245 3.65737 11.5023 3.64493 11.5023C3.63247 11.5023 3.61162 11.4876 3.59859 11.4695C3.58556 11.4514 3.56487 11.4366 3.5526 11.4366C3.54032 11.4366 3.50187 11.407 3.46714 11.3709C3.4324 11.3347 3.39597 11.3052 3.38616 11.3052C3.36289 11.3052 2.69484 10.6371 2.69484 10.6138C2.69484 10.604 2.66526 10.5676 2.62911 10.5329C2.59296 10.4981 2.56338 10.4612 2.56338 10.4507C2.56338 10.4403 2.5338 10.4033 2.49765 10.3685C2.4615 10.3338 2.43192 10.2954 2.43192 10.2831C2.43192 10.2708 2.41714 10.2501 2.39906 10.2371C2.38099 10.2241 2.3662 10.2019 2.3662 10.1878C2.3662 10.1737 2.35141 10.1515 2.33333 10.1385C2.31526 10.1255 2.30047 10.1033 2.30047 10.0892C2.30047 10.0751 2.28568 10.0529 2.26761 10.0399C2.24953 10.0269 2.23474 10.0047 2.23474 9.99061C2.23474 9.97653 2.21995 9.95434 2.20188 9.94131C2.1838 9.92828 2.16901 9.90447 2.16901 9.88839C2.16901 9.87232 2.16162 9.85915 2.15258 9.85915C2.14354 9.85915 2.13615 9.84437 2.13615 9.82629C2.13615 9.80822 2.12876 9.79343 2.11972 9.79343C2.11068 9.79343 2.10329 9.78026 2.10329 9.76419C2.10329 9.74811 2.0885 9.7243 2.07042 9.71127C2.05235 9.69824 2.03756 9.67443 2.03756 9.65834C2.03756 9.64227 2.03016 9.62911 2.02113 9.62911C2.01209 9.62911 2.00469 9.61432 2.00469 9.59624C2.00469 9.57817 1.9973 9.56338 1.98826 9.56338C1.97923 9.56338 1.97183 9.54859 1.97183 9.53052C1.97183 9.51244 1.96444 9.49765 1.9554 9.49765C1.94636 9.49765 1.93897 9.48286 1.93897 9.46479C1.93897 9.44671 1.93157 9.43192 1.92254 9.43192C1.9135 9.43192 1.9061 9.41714 1.9061 9.39906C1.9061 9.38099 1.89871 9.3662 1.88967 9.3662C1.88063 9.3662 1.87324 9.35141 1.87324 9.33333C1.87324 9.31526 1.86584 9.30047 1.85681 9.30047C1.84777 9.30047 1.84038 9.27829 1.84038 9.25117C1.84038 9.22406 1.83298 9.20188 1.82394 9.20188C1.81491 9.20188 1.80751 9.18709 1.80751 9.16901C1.80751 9.15094 1.80012 9.13615 1.79108 9.13615C1.78204 9.13615 1.77465 9.11397 1.77465 9.08685C1.77465 9.05974 1.76725 9.03756 1.75822 9.03756C1.74918 9.03756 1.74178 9.02277 1.74178 9.00469C1.74178 8.98662 1.73439 8.97183 1.72535 8.97183C1.71631 8.97183 1.70892 8.94965 1.70892 8.92253C1.70892 8.89542 1.70153 8.87324 1.69249 8.87324C1.68345 8.87324 1.67606 8.85106 1.67606 8.82394C1.67606 8.79683 1.66866 8.77465 1.65962 8.77465C1.65059 8.77465 1.64319 8.75246 1.64319 8.72535C1.64319 8.69824 1.6358 8.67606 1.62676 8.67606C1.61772 8.67606 1.61033 8.65387 1.61033 8.62676C1.61033 8.59965 1.60293 8.57746 1.5939 8.57746C1.58486 8.57746 1.57746 8.55528 1.57746 8.52817C1.57746 8.50106 1.57007 8.47887 1.56103 8.47887C1.552 8.47887 1.5446 8.4493 1.5446 8.41315C1.5446 8.377 1.53721 8.34742 1.52817 8.34742C1.51913 8.34742 1.51174 8.31784 1.51174 8.28169C1.51174 8.24554 1.50434 8.21596 1.49531 8.21596C1.48627 8.21596 1.47887 8.17899 1.47887 8.1338C1.47887 8.08861 1.47148 8.05164 1.46244 8.05164C1.45331 8.05164 1.44601 8.00782 1.44601 7.95305C1.44601 7.89828 1.43871 7.85446 1.42958 7.85446C1.42 7.85446 1.41315 7.79969 1.41315 7.723C1.41315 7.64632 1.40629 7.59155 1.39671 7.59155C1.38633 7.59155 1.38028 7.47653 1.38028 7.27934C1.38028 7.08216 1.37423 6.96714 1.36385 6.96714C1.35481 6.96714 1.34742 6.95235 1.34742 6.93427C1.34742 6.9162 1.35481 6.90141 1.36385 6.90141C1.37412 6.90141 1.38028 6.80282 1.38028 6.6385C1.38028 6.47418 1.38644 6.37559 1.39671 6.37559C1.40629 6.37559 1.41315 6.32082 1.41315 6.24413C1.41315 6.16744 1.42 6.11268 1.42958 6.11268C1.43871 6.11268 1.44601 6.06885 1.44601 6.01408C1.44601 5.95932 1.45331 5.91549 1.46244 5.91549C1.47148 5.91549 1.47887 5.88592 1.47887 5.84976C1.47887 5.81361 1.48627 5.78404 1.49531 5.78404C1.50434 5.78404 1.51174 5.74707 1.51174 5.70188C1.51174 5.65669 1.51913 5.61972 1.52817 5.61972C1.53721 5.61972 1.5446 5.59014 1.5446 5.55399C1.5446 5.51784 1.552 5.48826 1.56103 5.48826C1.57007 5.48826 1.57746 5.46608 1.57746 5.43897C1.57746 5.41185 1.58486 5.38967 1.5939 5.38967C1.60293 5.38967 1.61033 5.36749 1.61033 5.34038C1.61033 5.31326 1.61772 5.29108 1.62676 5.29108C1.6358 5.29108 1.64319 5.2689 1.64319 5.24178C1.64319 5.21467 1.65059 5.19249 1.65962 5.19249C1.66866 5.19249 1.67606 5.1703 1.67606 5.14319C1.67606 5.11608 1.68345 5.0939 1.69249 5.0939C1.70153 5.0939 1.70892 5.07171 1.70892 5.0446C1.70892 5.01749 1.71631 4.99531 1.72535 4.99531C1.73439 4.99531 1.74178 4.97312 1.74178 4.94601C1.74178 4.9189 1.74918 4.89671 1.75822 4.89671C1.76725 4.89671 1.77465 4.88192 1.77465 4.86385C1.77465 4.84577 1.78204 4.83099 1.79108 4.83099C1.80012 4.83099 1.80751 4.8162 1.80751 4.79812C1.80751 4.78005 1.81491 4.76526 1.82394 4.76526C1.83298 4.76526 1.84038 4.74307 1.84038 4.71596C1.84038 4.68885 1.84777 4.66667 1.85681 4.66667C1.86584 4.66667 1.87324 4.65188 1.87324 4.6338C1.87324 4.61573 1.88063 4.60094 1.88967 4.60094C1.89871 4.60094 1.9061 4.58615 1.9061 4.56807C1.9061 4.55 1.9135 4.53521 1.92254 4.53521C1.93157 4.53521 1.93897 4.52042 1.93897 4.50235C1.93897 4.48427 1.94636 4.46948 1.9554 4.46948C1.96444 4.46948 1.97183 4.45469 1.97183 4.43662C1.97183 4.41854 1.97923 4.40376 1.98826 4.40376C1.9973 4.40376 2.00469 4.38897 2.00469 4.37089C2.00469 4.35282 2.01209 4.33803 2.02113 4.33803C2.03016 4.33803 2.03756 4.32324 2.03756 4.30516C2.03756 4.28709 2.04495 4.2723 2.05399 4.2723C2.06303 4.2723 2.07042 4.25914 2.07042 4.24307C2.07042 4.22698 2.08521 4.20317 2.10329 4.19014C2.12136 4.17711 2.13615 4.1533 2.13615 4.13721C2.13615 4.12114 2.14354 4.10798 2.15258 4.10798C2.16162 4.10798 2.16901 4.09482 2.16901 4.07875C2.16901 4.06266 2.1838 4.03885 2.20188 4.02582C2.21995 4.01279 2.23474 3.99061 2.23474 3.97653C2.23474 3.96244 2.24953 3.94026 2.26761 3.92723C2.28568 3.9142 2.30047 3.89202 2.30047 3.87793C2.30047 3.86385 2.31526 3.84167 2.33333 3.82864C2.35141 3.81561 2.3662 3.79342 2.3662 3.77934C2.3662 3.76526 2.38099 3.74308 2.39906 3.73005C2.41714 3.71702 2.43192 3.69633 2.43192 3.68405C2.43192 3.67178 2.4615 3.63333 2.49765 3.59859C2.5338 3.56385 2.56338 3.52688 2.56338 3.51643C2.56338 3.50598 2.59296 3.46901 2.62911 3.43427C2.66526 3.39953 2.69484 3.36311 2.69484 3.3533C2.69484 3.33016 3.32995 2.69484 3.35308 2.69484C3.36276 2.69484 3.40668 2.65786 3.4507 2.61268C3.49473 2.56749 3.54067 2.53052 3.55281 2.53052C3.56497 2.53052 3.58556 2.51573 3.59859 2.49765C3.61162 2.47958 3.63247 2.46479 3.64493 2.46479C3.65737 2.46479 3.68829 2.44261 3.71361 2.41549C3.73894 2.38838 3.76986 2.3662 3.7823 2.3662C3.79476 2.3662 3.81561 2.35141 3.82864 2.33333C3.84167 2.31526 3.86385 2.30047 3.87793 2.30047C3.89202 2.30047 3.9142 2.28568 3.92723 2.26761C3.94026 2.24953 3.96244 2.23474 3.97653 2.23474C3.99061 2.23474 4.01279 2.21995 4.02582 2.20188C4.03885 2.1838 4.06266 2.16901 4.07875 2.16901C4.09482 2.16901 4.10798 2.16162 4.10798 2.15258C4.10798 2.14354 4.12277 2.13615 4.14084 2.13615C4.15892 2.13615 4.17371 2.12876 4.17371 2.11972C4.17371 2.11068 4.18687 2.10329 4.20294 2.10329C4.21903 2.10329 4.24284 2.0885 4.25587 2.07042C4.2689 2.05235 4.29271 2.03756 4.3088 2.03756C4.32487 2.03756 4.33803 2.03016 4.33803 2.02113C4.33803 2.01209 4.35282 2.00469 4.37089 2.00469C4.38897 2.00469 4.40376 1.9973 4.40376 1.98826C4.40376 1.97923 4.41854 1.97183 4.43662 1.97183C4.45469 1.97183 4.46948 1.96444 4.46948 1.9554C4.46948 1.94636 4.48427 1.93897 4.50235 1.93897C4.52042 1.93897 4.53521 1.93157 4.53521 1.92254C4.53521 1.9135 4.55 1.9061 4.56807 1.9061C4.58615 1.9061 4.60094 1.89871 4.60094 1.88967C4.60094 1.88063 4.61573 1.87324 4.6338 1.87324C4.65188 1.87324 4.66667 1.86584 4.66667 1.85681C4.66667 1.84777 4.68885 1.84038 4.71596 1.84038C4.74307 1.84038 4.76526 1.83298 4.76526 1.82394C4.76526 1.81491 4.78005 1.80751 4.79812 1.80751C4.8162 1.80751 4.83099 1.80012 4.83099 1.79108C4.83099 1.78204 4.84577 1.77465 4.86385 1.77465C4.88192 1.77465 4.89671 1.76725 4.89671 1.75822C4.89671 1.74918 4.9189 1.74178 4.94601 1.74178C4.97312 1.74178 4.99531 1.73439 4.99531 1.72535C4.99531 1.71631 5.01749 1.70892 5.0446 1.70892C5.07171 1.70892 5.0939 1.70153 5.0939 1.69249C5.0939 1.68345 5.11608 1.67606 5.14319 1.67606C5.1703 1.67606 5.19249 1.66866 5.19249 1.65962C5.19249 1.65059 5.21467 1.64319 5.24178 1.64319C5.2689 1.64319 5.29108 1.6358 5.29108 1.62676C5.29108 1.61772 5.31326 1.61033 5.34038 1.61033C5.36749 1.61033 5.38967 1.60293 5.38967 1.5939C5.38967 1.58486 5.41185 1.57746 5.43897 1.57746C5.46608 1.57746 5.48826 1.57007 5.48826 1.56103C5.48826 1.552 5.51784 1.5446 5.55399 1.5446C5.59014 1.5446 5.61972 1.53721 5.61972 1.52817C5.61972 1.51913 5.65669 1.51174 5.70188 1.51174C5.74707 1.51174 5.78404 1.50434 5.78404 1.49531C5.78404 1.48627 5.81361 1.47887 5.84976 1.47887C5.88592 1.47887 5.91549 1.47148 5.91549 1.46244C5.91549 1.45331 5.95932 1.44601 6.01408 1.44601C6.06885 1.44601 6.11268 1.43871 6.11268 1.42958C6.11268 1.42 6.16744 1.41315 6.24413 1.41315C6.32082 1.41315 6.37559 1.40629 6.37559 1.39671C6.37559 1.38649 6.46871 1.38028 6.62207 1.38028C6.77542 1.38028 6.86854 1.37407 6.86854 1.36385C6.86854 1.35411 6.9288 1.34742 7.01643 1.34742C7.10406 1.34742 7.16432 1.35411 7.16432 1.36385Z" fill="black"/>
</svg>
